<svg width="350" height="393" viewBox="0 0 350 393" fill="none" xmlns="http://www.w3.org/2000/svg">
<path d="M75.5067 55.5097C67.8026 48.2724 55.0985 46.8841 50.3434 54.4175C45.5883 61.9508 48.3026 69.9129 38.5475 78.2629C31.9149 83.969 36.8332 101.455 74.67 99.8523C92.5781 99.097 86.5169 80.4575 86.0373 71.6482C85.5577 62.8389 85.5271 52.0595 75.5067 55.5097Z" fill="#263238"/>
<path d="M60.6024 362.805L51.4391 363.162L51.2656 353.24L60.4289 352.883L60.6024 362.805Z" fill="#B55B52"/>
<path d="M50.8672 361.264H61.2243C61.4068 361.262 61.5845 361.323 61.7275 361.436C61.8705 361.549 61.9703 361.708 62.0101 361.887L63.806 370.104C63.8472 370.304 63.843 370.511 63.7936 370.71C63.7443 370.908 63.6511 371.093 63.5209 371.251C63.3907 371.408 63.2268 371.535 63.0412 371.621C62.8557 371.707 62.6533 371.75 62.4488 371.747C58.8264 371.686 57.0713 371.472 52.5101 371.472C49.7039 371.472 42.4284 371.768 38.5509 371.768C34.6733 371.768 34.1835 367.93 35.7652 367.583C42.908 366.021 47.0611 363.877 49.3468 361.825C49.766 361.455 50.3082 361.255 50.8672 361.264Z" fill="#263238"/>
<path opacity="0.2" d="M51.2656 353.251L51.3473 357.865L60.5105 357.467L60.4289 352.894L51.2656 353.251Z" fill="black"/>
<path d="M37.7579 162.967C35.717 173.971 38.064 227.756 41.1762 251.509C45.3191 283.051 49.6048 356.292 49.6048 356.292L61.8497 355.557C61.8497 355.557 64.9109 278.427 62.4109 253.102C63.8293 220.508 67.3395 163.579 67.3395 163.579L37.7579 162.967Z" fill="#407BFF"/>
<path opacity="0.2" d="M65.3054 199.052C65.734 190.794 59.8871 183.454 57.5299 199.052C56.0401 208.964 59.1218 226.337 63.1626 238.607C63.785 225.837 64.581 211.618 65.3054 199.052Z" fill="black"/>
<path d="M127.929 331.947L121.97 337.643L113.898 328.987L119.847 323.301L127.929 331.947Z" fill="#B55B52"/>
<path d="M120.406 337.797L126.528 329.406C126.628 329.26 126.78 329.158 126.952 329.12C127.125 329.082 127.305 329.111 127.457 329.202L134.6 333.407C134.776 333.524 134.926 333.675 135.042 333.851C135.159 334.028 135.238 334.226 135.276 334.433C135.314 334.641 135.31 334.854 135.264 335.06C135.218 335.266 135.131 335.461 135.008 335.633C132.834 338.521 131.641 339.797 128.957 343.493C127.304 345.759 125.396 348.882 123.12 352.026C120.845 355.17 117.732 352.914 118.406 351.393C121.467 344.564 120.171 342.666 120.008 339.41C119.955 338.842 120.096 338.274 120.406 337.797Z" fill="#263238"/>
<path opacity="0.2" d="M113.898 328.997L118.062 333.447L123.97 327.711L119.858 323.301L113.898 328.997Z" fill="black"/>
<path d="M51.9609 163.264C51.9609 163.264 65.1446 232.677 68.5732 259.625C70.614 275.723 115.614 333.642 115.614 333.642L123.298 325.547C123.298 325.547 106.828 283.144 86.9916 257.992C86.2058 228.512 89.5528 179.984 78.165 163.805L51.9609 163.264Z" fill="#407BFF"/>
<path d="M40.391 110.039C40.391 116.001 40.1155 121.85 39.6768 127.76C39.238 133.67 38.6564 139.55 37.7074 145.471L37.5339 146.583L37.2992 147.839C37.1223 148.662 36.9285 149.469 36.7176 150.258C36.2686 151.82 35.6972 153.32 35.187 154.77C34.0705 157.612 32.8034 160.392 31.391 163.099C28.6099 168.393 25.4414 173.473 21.9115 178.299C21.5388 178.799 20.9947 179.144 20.3834 179.268C19.7721 179.391 19.1367 179.285 18.5991 178.968C18.0616 178.652 17.6597 178.148 17.4706 177.554C17.2816 176.959 17.3186 176.316 17.5747 175.747V175.686C19.9727 170.5 22.2992 165.182 24.3298 159.915C25.3502 157.281 26.2584 154.617 27.0339 152.004C27.4012 150.697 27.7278 149.401 27.9829 148.135C28.1155 147.502 28.2074 146.879 28.2992 146.267L28.4013 145.358L28.5033 144.338C29.0237 138.682 29.3298 132.946 29.6155 127.199C29.9012 121.452 30.0339 115.654 30.1972 109.958V109.907C30.2188 108.553 30.7771 107.263 31.7492 106.322C32.7214 105.38 34.0277 104.863 35.3808 104.884C36.734 104.906 38.0231 105.465 38.9646 106.437C39.9061 107.41 40.4229 108.716 40.4012 110.07L40.391 110.039Z" fill="#B55B52"/>
<path d="M37.0562 102.578C24.5256 106.242 26.1378 129.046 26.1378 129.046L43.9542 133.844C43.9542 133.844 46.9134 117.144 46.648 111.152C46.3827 104.925 43.9644 100.567 37.0562 102.578Z" fill="#407BFF"/>
<path d="M18.8927 174.431L12.6172 179.769L21.4131 183.362C21.4131 183.362 24.1376 179.208 22.8723 175.268L18.8927 174.431Z" fill="#B55B52"/>
<path d="M13.7338 187.915L17.744 188.416C18.1895 188.471 18.6409 188.378 19.0283 188.151C19.4157 187.924 19.7175 187.576 19.8869 187.16L21.4175 183.363L12.6216 179.77L11.9583 185.659C11.8978 186.194 12.0503 186.73 12.3827 187.152C12.7151 187.575 13.2006 187.849 13.7338 187.915Z" fill="#B55B52"/>
<path d="M33.0107 108.509C32.4495 131.374 37.7046 148.064 37.7658 162.968L78.1638 163.805C77.8678 148.881 77.9903 139.143 84.4087 112.398C84.6877 111.233 84.7209 110.023 84.506 108.845C84.2912 107.666 83.833 106.546 83.1609 105.554C82.4887 104.563 81.6173 103.723 80.6023 103.087C79.5872 102.452 78.4509 102.035 77.2658 101.864C74.8474 101.506 72.1638 101.17 69.4393 100.986C63.3338 100.42 57.1958 100.29 51.0719 100.598C46.7658 100.904 42.1331 101.537 38.827 102.037C37.2565 102.271 35.8164 103.045 34.7549 104.226C33.6933 105.407 33.0765 106.922 33.0107 108.509Z" fill="#407BFF"/>
<path d="M70.6623 129.638L58.6827 129.556C58.5634 129.562 58.4444 129.541 58.3339 129.496C58.2234 129.45 58.1241 129.382 58.0426 129.295C57.9612 129.207 57.8996 129.103 57.8621 128.99C57.8246 128.877 57.8121 128.756 57.8255 128.638L58.4888 122.962C58.532 122.709 58.6631 122.479 58.8591 122.313C59.0551 122.147 59.3033 122.055 59.5602 122.054L71.5296 122.135C71.6484 122.129 71.7672 122.148 71.8777 122.192C71.9882 122.236 72.0878 122.304 72.1694 122.39C72.2511 122.477 72.3128 122.58 72.3504 122.693C72.3879 122.806 72.4003 122.926 72.3867 123.044L71.7235 128.73C71.6825 128.982 71.5534 129.212 71.3591 129.378C71.1648 129.544 70.9179 129.637 70.6623 129.638Z" fill="white"/>
<path opacity="0.4" d="M51.1335 100.607C51.1335 100.607 44.5416 105.221 51.511 116.797C57.2329 111.229 63.2302 105.952 69.4804 100.985L51.1335 100.607Z" fill="white"/>
<path d="M68.09 80.2842C66.8145 86.1639 65.4267 96.9637 69.4777 100.986C63.1078 103.496 57.2342 107.118 52.1308 111.683C47.6512 103.456 51.1104 100.598 51.1104 100.598C57.7226 99.1686 57.6614 94.2791 56.6104 89.6651L68.09 80.2842Z" fill="#B55B52"/>
<path opacity="0.2" d="M66.8471 81.3047C66.688 84.8179 65.78 88.2565 64.1838 91.39C63.0716 93.5438 60.1022 94.4523 57.1124 94.6259C57.2111 92.9573 57.0493 91.2836 56.6328 89.6649L66.8471 81.3047Z" fill="black"/>
<path d="M77.6533 73.0873C74.5921 82.4989 73.5717 86.5412 67.4493 90.216C58.3166 95.7384 47.4288 89.971 47.5717 79.8551C47.7146 70.7497 52.6738 56.8978 62.9493 55.4789C65.2247 55.1493 67.5466 55.4079 69.6939 56.2301C71.8412 57.0522 73.7424 58.4106 75.2164 60.1757C76.6904 61.9409 77.6882 64.0541 78.1148 66.3142C78.5414 68.5743 78.3825 70.906 77.6533 73.0873Z" fill="#B55B52"/>
<path d="M52.7031 60.7256C57.8052 62.1649 70.2337 63.2367 72.7235 61.7463C70.3868 65.3395 72.6113 75.1594 76.2235 77.5378C81.0909 73.6282 82.1725 64.1758 77.6725 59.4904C73.1725 54.805 58.948 49.201 52.7031 60.7256Z" fill="#263238"/>
<path d="M79.0826 78.8443C78.7604 79.741 78.2622 80.5641 77.6173 81.2654C76.9725 81.9666 76.1939 82.5317 75.3275 82.9274C73.0213 83.9482 71.4907 81.9883 71.8173 79.6099C72.1132 77.4765 73.6744 74.3631 76.1438 74.3223C76.6767 74.3296 77.1996 74.4682 77.6663 74.7257C78.1329 74.9832 78.529 75.3517 78.8195 75.7987C79.11 76.2457 79.286 76.7574 79.3319 77.2886C79.3777 77.8198 79.2921 78.3541 79.0826 78.8443Z" fill="#B55B52"/>
<path d="M78.8122 161.446L80.5673 165.111C80.6999 165.387 80.3632 165.672 79.8938 165.662L37.5163 164.774C37.1591 164.774 36.8632 164.58 36.8428 164.345L36.5469 160.722C36.5469 160.477 36.853 160.272 37.251 160.272L78.1693 161.13C78.2947 161.122 78.4199 161.148 78.5326 161.203C78.6453 161.259 78.7416 161.342 78.8122 161.446Z" fill="#263238"/>
<path d="M73.2356 165.907H74.3275C74.5417 165.907 74.7152 165.794 74.705 165.662L74.2867 160.946C74.2867 160.813 74.0826 160.69 73.8683 160.69H72.7662C72.552 160.69 72.3887 160.793 72.3989 160.935L72.8071 165.641C72.8275 165.794 73.0111 165.907 73.2356 165.907Z" fill="#407BFF"/>
<path d="M40.5938 165.233H41.6958C41.9101 165.233 42.0836 165.131 42.0734 164.988L41.655 160.272C41.655 160.139 41.4509 160.027 41.2366 160.017H40.1346C39.9203 160.017 39.7469 160.119 39.7673 160.262L40.1754 164.967C40.1958 165.11 40.3795 165.223 40.5938 165.233Z" fill="#407BFF"/>
<path d="M56.9051 165.57H58.0071C58.2214 165.57 58.3949 165.468 58.3847 165.325L57.9663 160.619C57.9663 160.477 57.7622 160.364 57.548 160.364H56.4459C56.2316 160.364 56.0684 160.477 56.0786 160.609L56.4867 165.325C56.5071 165.448 56.6908 165.57 56.9051 165.57Z" fill="#407BFF"/>
<path d="M62.9679 72.3015C62.7638 73.0773 62.1924 73.6081 61.6822 73.4754C61.172 73.3427 60.9271 72.6077 61.1209 71.8319C61.3148 71.0561 61.8965 70.5253 62.4067 70.658C62.9169 70.7907 63.1618 71.5257 62.9679 72.3015Z" fill="#263238"/>
<path d="M54.1728 70.0561C53.9789 70.8421 53.4075 71.3627 52.8973 71.23C52.3871 71.0973 52.132 70.3725 52.3361 69.5865C52.5402 68.8005 53.1014 68.2902 53.6116 68.4127C54.1218 68.5351 54.3769 69.2803 54.1728 70.0561Z" fill="#263238"/>
<path d="M53.8206 68.5145L52.0859 67.4941C52.0859 67.4941 52.6778 69.2084 53.8206 68.5145Z" fill="#263238"/>
<path d="M56.1165 71.9854C54.9742 73.5852 53.618 75.0208 52.0859 76.2522C52.4094 76.6356 52.8124 76.9438 53.2671 77.1553C53.7218 77.3669 54.2171 77.4767 54.7186 77.4771L56.1165 71.9854Z" fill="#A02724"/>
<path d="M56.6126 80.5286C56.5766 80.4978 56.55 80.4576 56.5356 80.4126C56.5212 80.3675 56.5195 80.3194 56.5309 80.2735C56.5402 80.2439 56.5553 80.2165 56.5752 80.1928C56.5951 80.1691 56.6195 80.1495 56.647 80.1353C56.6745 80.1211 56.7046 80.1124 56.7354 80.1099C56.7663 80.1073 56.7974 80.1109 56.8269 80.1204C57.78 80.4191 58.7899 80.4898 59.7754 80.3268C60.7608 80.1637 61.6942 79.7715 62.5003 79.1816C62.5477 79.141 62.6092 79.1209 62.6714 79.1257C62.7336 79.1305 62.7914 79.1598 62.8319 79.2071C62.8725 79.2545 62.8927 79.316 62.8879 79.3782C62.8831 79.4404 62.8538 79.4982 62.8064 79.5388C61.9438 80.1897 60.9365 80.6225 59.8704 80.8002C58.8044 80.9779 57.7112 80.8952 56.684 80.5592L56.6126 80.5286Z" fill="#263238"/>
<path d="M67.761 68.7188C67.6991 68.6636 67.6473 68.5979 67.6079 68.5249C67.3972 67.9716 67.0578 67.4765 66.6177 67.0807C66.1776 66.6848 65.6495 66.3995 65.0773 66.2485C64.9541 66.2269 64.8447 66.1572 64.7729 66.0548C64.7011 65.9523 64.673 65.8256 64.6946 65.7024C64.7163 65.5792 64.786 65.4697 64.8883 65.3979C64.9907 65.3261 65.1174 65.298 65.2405 65.3196C65.9683 65.4997 66.6426 65.8512 67.207 66.3449C67.7714 66.8385 68.2098 67.4599 68.4854 68.1574C68.5215 68.2533 68.5259 68.3583 68.4979 68.457C68.47 68.5556 68.4112 68.6427 68.3302 68.7054C68.2492 68.7682 68.1502 68.8034 68.0478 68.8058C67.9453 68.8082 67.8448 68.7777 67.761 68.7188Z" fill="#263238"/>
<path d="M52.4406 65.0939L52.3794 65.0327C52.2915 64.9446 52.2422 64.8254 52.2422 64.701C52.2422 64.5767 52.2915 64.4574 52.3794 64.3694C52.9182 63.8638 53.5685 63.4923 54.2776 63.2849C54.9867 63.0775 55.7347 63.04 56.461 63.1755C56.5217 63.1909 56.5788 63.2183 56.6287 63.256C56.6787 63.2938 56.7206 63.3411 56.752 63.3953C56.7834 63.4495 56.8036 63.5095 56.8114 63.5716C56.8193 63.6337 56.8147 63.6968 56.7978 63.7571C56.7665 63.8775 56.6888 63.9806 56.5817 64.0437C56.4746 64.1069 56.3468 64.1249 56.2263 64.0939C55.6442 63.9841 55.0443 64.0148 54.4764 64.1834C53.9085 64.352 53.389 64.6536 52.961 65.0633C52.887 65.1192 52.7981 65.152 52.7055 65.1575C52.6128 65.1629 52.5207 65.1408 52.4406 65.0939Z" fill="#263238"/>
<path d="M84.3984 109.08C87.3678 113.01 90.1433 116.971 92.8372 121.084C94.1739 123.126 95.5005 125.168 96.7556 127.372C98.1075 129.603 99.3207 131.914 100.388 134.293C100.711 135.035 100.991 135.795 101.225 136.57C101.395 137.167 101.511 137.779 101.572 138.397C101.589 138.645 101.589 138.894 101.572 139.142V139.601C101.553 139.804 101.523 140.005 101.48 140.204L101.409 140.52V140.663V140.775L101.327 141C100.847 142.225 100.47 143.46 99.8984 144.644C98.8637 147.071 97.621 149.404 96.1842 151.616C94.7045 153.85 92.972 155.905 91.0209 157.741C90.027 158.673 88.9588 159.523 87.827 160.282C87.2454 160.66 86.6536 161.028 86.0413 161.364L85.0719 161.834C84.7046 161.997 84.4393 162.11 83.9086 162.304L81.9699 157.649C82.1079 157.514 82.2545 157.387 82.4086 157.271L82.9699 156.781C83.3474 156.444 83.7148 156.077 84.0719 155.699C84.7989 154.919 85.4803 154.098 86.1127 153.239C87.359 151.486 88.4451 149.624 89.3576 147.676C89.7862 146.655 90.2556 145.695 90.6127 144.613C90.9699 143.531 91.3678 142.572 91.6944 141.551C92.0209 140.53 92.276 139.407 92.5923 138.346V138.152V138.05V138.142V138.346C92.5923 138.468 92.5413 138.652 92.5311 138.724C92.5261 138.802 92.5261 138.88 92.5311 138.958V139.254C92.5311 139.489 92.5311 139.418 92.5311 139.316C92.5311 139.213 92.2454 138.662 92.0311 138.234C91.1025 136.488 89.8576 134.477 88.5821 132.558C87.3066 130.639 85.9801 128.669 84.6229 126.74C81.9188 122.871 79.1331 118.961 76.3984 115.123L84.3984 109.08Z" fill="#B55B52"/>
<path d="M86.6089 161.1L78.7415 166.663L75.2109 158.619C75.2109 158.619 79.9864 156.057 83.7517 157.772L86.6089 161.1Z" fill="#B55B52"/>
<path d="M73.2613 167.326L71.2919 164.58C70.918 164.051 70.7654 163.396 70.8664 162.756C70.9673 162.115 71.314 161.539 71.8327 161.151L75.2102 158.619L78.7408 166.663L76.5776 168C76.0423 168.329 75.4022 168.442 74.7867 168.317C74.1711 168.192 73.6259 167.838 73.2613 167.326Z" fill="#B55B52"/>
<path d="M68.6526 106.651C65.9791 117.277 82.4689 135.467 82.4689 135.467L96.3362 121.064C96.3362 121.064 89.9995 107.529 81.724 103.282C75.9485 100.322 69.8362 101.965 68.6526 106.651Z" fill="#407BFF"/>
<path d="M62.6175 70.7597L60.8828 69.7393C60.8828 69.7393 61.4644 71.4535 62.6175 70.7597Z" fill="#263238"/>
<path d="M44.8957 135.038C44.8212 135.037 44.7485 135.015 44.6867 134.973C44.625 134.931 44.577 134.872 44.5488 134.803C44.5157 134.712 44.5195 134.612 44.5597 134.524C44.5998 134.437 44.6728 134.368 44.7631 134.334L46.3549 133.721C47.8459 133.17 49.1334 132.177 50.0451 130.875C50.9568 129.573 51.4494 128.023 51.457 126.433L51.5692 111.509C51.6015 110.373 51.2428 109.26 50.5531 108.357C49.8634 107.453 48.8846 106.815 47.7804 106.547C46.6762 106.279 45.5135 106.399 44.4869 106.886C43.4603 107.373 42.632 108.198 42.1406 109.222L35.2427 122.493C34.5016 123.894 34.2024 125.486 34.3845 127.061C34.5667 128.635 35.2217 130.118 36.2631 131.312L37.3855 132.588C37.4233 132.623 37.4533 132.666 37.4736 132.713C37.4938 132.761 37.5039 132.812 37.5031 132.863C37.5022 132.915 37.4906 132.966 37.4689 133.012C37.4471 133.059 37.4158 133.101 37.3769 133.135C37.338 133.169 37.2925 133.194 37.2432 133.209C37.1939 133.224 37.142 133.229 37.0908 133.222C37.0396 133.216 36.9904 133.199 36.9462 133.172C36.9021 133.146 36.864 133.11 36.8345 133.068L35.7121 131.68C34.5628 130.381 33.8367 128.764 33.6307 127.042C33.4247 125.32 33.7485 123.576 34.559 122.043L41.457 108.773C42.0466 107.641 43.0001 106.74 44.1639 106.215C45.3278 105.691 46.6342 105.574 47.8728 105.883C49.1113 106.192 50.2099 106.909 50.9915 107.918C51.7731 108.928 52.1923 110.171 52.1814 111.448L52.0692 126.372C52.061 128.103 51.5279 129.791 50.5404 131.212C49.553 132.634 48.1575 133.722 46.5386 134.334L44.9468 134.936L44.8957 135.038Z" fill="#263238"/>
<path d="M51.8243 114.838C51.7294 114.835 51.6389 114.797 51.5708 114.731C51.5027 114.665 51.4621 114.575 51.457 114.48C51.3123 113.301 50.8137 112.193 50.027 111.302C49.2403 110.412 48.2024 109.781 47.05 109.493C45.8976 109.204 44.6849 109.272 43.5717 109.686C42.4585 110.101 41.4971 110.844 40.8141 111.816C40.7907 111.858 40.7591 111.895 40.7213 111.925C40.6835 111.955 40.6401 111.978 40.5937 111.991C40.5473 112.004 40.4987 112.008 40.4507 112.003C40.4027 111.997 40.3563 111.982 40.3141 111.959C40.2719 111.935 40.2347 111.904 40.2047 111.866C40.1747 111.828 40.1524 111.785 40.1391 111.738C40.1259 111.692 40.1219 111.643 40.1274 111.595C40.1329 111.547 40.1478 111.501 40.1713 111.459C40.9305 110.336 42.0163 109.474 43.2815 108.989C44.5467 108.504 45.9303 108.419 47.2451 108.747C48.5599 109.074 49.7424 109.798 50.6326 110.82C51.5228 111.841 52.0777 113.112 52.2223 114.46C52.2224 114.557 52.1855 114.65 52.119 114.72C52.0526 114.79 51.9617 114.832 51.8652 114.838H51.8243Z" fill="#263238"/>
<path d="M47.8468 106.681C47.7865 106.68 47.7272 106.665 47.6739 106.637C47.6206 106.608 47.5749 106.567 47.5407 106.518C47.3542 106.104 47.2578 105.655 47.2578 105.201C47.2578 104.747 47.3542 104.298 47.5407 103.884C47.8056 103.061 48.2522 102.308 48.8474 101.68C49.4427 101.053 50.1714 100.568 50.9795 100.26C51.0242 100.243 51.0721 100.235 51.1201 100.237C51.1681 100.239 51.2152 100.25 51.2584 100.272C51.3016 100.293 51.3399 100.323 51.3709 100.359C51.4019 100.396 51.425 100.439 51.4387 100.485C51.4682 100.576 51.4613 100.674 51.4194 100.76C51.3775 100.846 51.3039 100.912 51.2142 100.944C50.5221 101.228 49.8999 101.659 49.3908 102.207C48.8816 102.755 48.4975 103.408 48.2652 104.119C48.113 104.435 48.0248 104.778 48.0055 105.128C47.9862 105.479 48.0363 105.829 48.1529 106.16C48.1793 106.201 48.1974 106.247 48.206 106.295C48.2147 106.342 48.2138 106.392 48.2033 106.439C48.1929 106.486 48.1731 106.531 48.1452 106.571C48.1173 106.611 48.0818 106.645 48.0407 106.671C47.9778 106.689 47.9113 106.693 47.8468 106.681Z" fill="#263238"/>
<path d="M44.0577 134.476C43.8843 135.14 44.0577 135.772 44.5475 135.884C45.0373 135.997 45.4863 135.537 45.6496 134.864C45.8128 134.191 45.5883 133.558 45.1496 133.456C44.7108 133.354 44.221 133.803 44.0577 134.476Z" fill="#263238"/>
<path d="M73.0208 116.848C73.3473 118.39 74.4494 119.451 75.4596 119.237C76.4698 119.022 77.0208 117.583 76.6841 116.052C76.3473 114.521 75.2555 113.439 74.2453 113.663C73.2351 113.888 72.6841 115.348 73.0208 116.848Z" fill="#263238"/>
<path d="M76.2084 116.368C76.1615 116.37 76.1148 116.362 76.0709 116.345C76.0271 116.328 75.9869 116.303 75.9528 116.271C75.9187 116.239 75.8913 116.2 75.8721 116.157C75.8529 116.114 75.8424 116.068 75.841 116.021C75.6267 110.376 73.4839 103.364 69.3104 101.291C69.2242 101.248 69.1588 101.172 69.1282 101.08C69.0977 100.988 69.1045 100.888 69.1472 100.801C69.1678 100.758 69.197 100.719 69.2331 100.687C69.2692 100.655 69.3114 100.63 69.3572 100.615C69.4029 100.6 69.4513 100.594 69.4994 100.598C69.5475 100.602 69.5943 100.616 69.6369 100.638C74.1063 102.853 76.341 109.948 76.5655 115.95C76.5698 115.998 76.564 116.046 76.5484 116.092C76.5329 116.138 76.508 116.18 76.4754 116.215C76.4427 116.251 76.403 116.279 76.3588 116.298C76.3146 116.318 76.2668 116.328 76.2186 116.327L76.2084 116.368Z" fill="#263238"/>
<path d="M71.9261 116.981C72.1404 118.298 73.0894 119.237 74.0486 119.084C75.0077 118.931 75.62 117.736 75.4057 116.409C75.1914 115.082 74.2322 114.153 73.273 114.307C72.3138 114.46 71.7118 115.654 71.9261 116.981Z" fill="white"/>
<path d="M71.8436 117.094C72.1497 118.727 73.0069 119.931 73.7518 119.789C74.4966 119.646 74.8334 118.217 74.5273 116.583C74.2211 114.95 73.364 113.746 72.6191 113.888C71.8742 114.031 71.5273 115.46 71.8436 117.094Z" fill="#263238"/>
<path d="M36.3424 132.548C36.1791 133.221 36.4036 133.854 36.8424 133.956C37.2811 134.058 37.7709 133.619 37.9444 132.936C38.1179 132.252 37.8832 131.64 37.4444 131.527C37.0056 131.415 36.5158 131.884 36.3424 132.548Z" fill="#263238"/>
<path d="M148.117 49.4264C141.657 50.5799 140.841 49.9878 140.759 45.3433C140.678 40.6987 138.331 32.951 141.596 30.5215C141.82 30.3089 142.096 30.1588 142.396 30.0863C142.697 30.0137 143.011 30.0212 143.307 30.108C143.603 30.1947 143.872 30.3578 144.086 30.5808C144.299 30.8039 144.451 31.0791 144.525 31.379C144.724 30.8695 145.112 30.4567 145.609 30.2266C146.105 29.9964 146.671 29.9668 147.188 30.1439C147.321 29.1843 147.474 26.7242 149.229 26.0607C150.984 25.3972 152.596 26.9897 152.596 26.9897C152.596 26.9897 152.464 23.2026 155.015 23.57C155.776 23.6918 156.484 24.0403 157.044 24.5702C157.605 25.1001 157.993 25.7867 158.157 26.5405C158.157 26.5405 159.627 24.3969 161.617 25.2441C163.606 26.0914 163.188 28.5821 163.188 28.5821C163.188 28.5821 165.3 27.5613 166.872 28.7148C168.443 29.8682 167.3 31.7159 167.3 31.7159C167.3 31.7159 168.729 28.0411 171.453 30.0724C173.902 31.9098 171.678 34.7884 171.678 34.7884C171.678 34.7884 174.372 34.3495 175.025 35.7071C177.229 40.3312 168.831 45.4964 168.555 53.3053C155.657 58.1847 148.117 49.4264 148.117 49.4264Z" fill="#263238"/>
<path d="M101.567 173.533L97.2611 172.736L91.5672 178.177C91.2573 178.472 91.0128 178.829 90.8493 179.225C90.6859 179.62 90.6071 180.046 90.6182 180.474L90.6998 184.924C90.7099 185.685 91.0029 186.415 91.5216 186.972C92.0404 187.529 92.7478 187.872 93.506 187.936L95.4856 188.109C96.2057 188.177 96.9266 187.988 97.5206 187.575C98.1146 187.162 98.5432 186.552 98.7305 185.853L99.7509 182.219C99.7509 182.219 105.373 175.574 101.567 173.533Z" fill="#FFB573"/>
<path d="M145.053 92.1353C142.166 99.6176 139.288 107.131 136.513 114.664C133.737 122.197 130.982 129.761 128.4 137.203L127.941 138.581L127.625 139.479C127.502 139.816 127.38 140.163 127.268 140.428C126.788 141.643 126.309 142.643 125.829 143.654C124.87 145.696 123.9 147.523 122.921 149.37C120.951 153.045 118.921 156.587 116.87 160.119C112.788 167.193 108.706 174.104 104.482 181.117L91.4922 173.032C95.7779 166.366 99.9106 159.486 103.87 152.616C105.819 149.166 107.737 145.706 109.523 142.276C110.411 140.561 111.268 138.846 112.023 137.172C112.38 136.366 112.737 135.539 112.972 134.865C113.053 134.671 113.084 134.538 113.135 134.406L113.298 133.875L113.768 132.385C116.227 124.545 118.809 116.971 121.298 109.284L128.768 86.3066L145.053 92.1353Z" fill="#407BFF"/>
<path opacity="0.6" d="M145.053 92.1353C142.166 99.6176 139.288 107.131 136.513 114.664C133.737 122.197 130.982 129.761 128.4 137.203L127.941 138.581L127.625 139.479C127.502 139.816 127.38 140.163 127.268 140.428C126.788 141.643 126.309 142.643 125.829 143.654C124.87 145.696 123.9 147.523 122.921 149.37C120.951 153.045 118.921 156.587 116.87 160.119C112.788 167.193 108.706 174.104 104.482 181.117L91.4922 173.032C95.7779 166.366 99.9106 159.486 103.87 152.616C105.819 149.166 107.737 145.706 109.523 142.276C110.411 140.561 111.268 138.846 112.023 137.172C112.38 136.366 112.737 135.539 112.972 134.865C113.053 134.671 113.084 134.538 113.135 134.406L113.298 133.875L113.768 132.385C116.227 124.545 118.809 116.971 121.298 109.284L128.768 86.3066L145.053 92.1353Z" fill="white"/>
<path d="M106.137 365.347L96.9844 365.797L101.311 341.951L110.015 343.952L106.137 365.347Z" fill="#FFB573"/>
<path d="M171.802 365.695H162.648L162.679 344.493H171.822L171.802 365.695Z" fill="#FFB573"/>
<path d="M161.782 364.633H172.935C173.114 364.63 173.289 364.691 173.427 364.805C173.565 364.919 173.659 365.079 173.69 365.256L175.159 373.422C175.192 373.624 175.18 373.831 175.125 374.028C175.07 374.225 174.972 374.407 174.839 374.563C174.706 374.718 174.541 374.843 174.355 374.928C174.168 375.013 173.966 375.056 173.762 375.055C170.17 374.994 167.557 374.779 163.037 374.779C160.262 374.779 151.813 375.065 148.017 375.065C144.221 375.065 143.833 371.268 145.415 370.921C152.557 369.38 157.935 367.256 160.272 365.225C160.686 364.85 161.223 364.639 161.782 364.633Z" fill="#263238"/>
<path opacity="0.2" d="M101.312 341.961L99.3125 352.985L108.017 354.986L110.017 343.962L101.312 341.961Z" fill="black"/>
<path opacity="0.2" d="M171.817 344.493H162.664V355.415H171.817V344.493Z" fill="black"/>
<path d="M179.185 91.8699C172.042 124.014 173.94 155.74 173.174 162.61L124.328 159.384C119.225 120.595 124.919 95.851 128.154 85.7044C128.68 84.0296 129.674 82.5405 131.02 81.4135C132.365 80.2864 134.005 79.5686 135.746 79.345C143.01 78.5486 150.324 78.3199 157.623 78.6611C162.565 78.9568 167.47 79.7017 172.276 80.8864C174.647 81.4291 176.706 82.8903 178.001 84.9493C179.296 87.0084 179.722 89.4972 179.185 91.8699Z" fill="#407BFF"/>
<path d="M164.467 56.8779C162.855 62.9312 160.946 73.6493 164.018 79.0697C164.497 79.9169 163.579 80.6417 163.538 81.6216C163.426 84.6227 159.365 85.521 152.099 85.5618C144.834 85.6027 141.722 82.5709 143.701 79.7128C144.005 79.2771 144.466 78.9769 144.987 78.8757C151.793 77.3548 151.926 72.0161 150.997 66.9224L164.467 56.8779Z" fill="#FFB573"/>
<path opacity="0.4" d="M151.57 83.8977C153.479 86.5528 154.689 89.6452 155.091 92.8907C162.346 89.4813 165.805 81.2028 165.805 81.2028L163.621 78.8652C163.621 78.8652 155.56 80.3862 151.57 83.8977Z" fill="black"/>
<path opacity="0.4" d="M150.862 83.929C148.191 86.1042 145.937 88.7467 144.209 91.7278C139.138 88.5838 140.811 79.6213 140.811 79.6213L144.944 78.8047C144.944 78.8047 146.791 80.5094 150.862 83.929Z" fill="black"/>
<path d="M151.186 83.7041L149.625 83.8572L146.982 85.6028C146.814 86.6542 147 87.7317 147.513 88.6651C149.048 88.965 150.615 89.0713 152.176 88.9815C153.224 88.4754 154.059 87.6148 154.533 86.5521L152.594 84.0716L151.186 83.7041Z" fill="#263238"/>
<path d="M151.188 83.7036C153.148 86.1579 154.651 88.9447 155.626 91.931C162.881 88.5216 167.106 80.3758 167.106 80.3758L163.606 77.3135C163.606 77.3135 155.177 80.2125 151.188 83.7036Z" fill="#407BFF"/>
<path d="M151.188 83.7038C148.388 85.4711 145.939 87.7414 143.964 90.4001C138.862 87.2663 140.811 78.8244 140.811 78.8244L144.944 78.0078C144.944 78.0078 147.127 80.3046 151.188 83.7038Z" fill="#407BFF"/>
<path opacity="0.2" d="M158.975 60.9717L151.016 66.9126C151.257 68.1406 151.39 69.3873 151.414 70.6385C154.281 70.4241 158.403 67.5761 158.903 64.5954C159.143 63.4015 159.167 62.1742 158.975 60.9717Z" fill="black"/>
<path d="M165.92 46.874C164.767 55.8874 164.553 61.1649 159.675 65.5644C152.338 72.0872 141.451 67.2079 139.889 58.0311C138.481 49.773 140.604 36.4212 149.696 33.4099C151.697 32.7349 153.838 32.5832 155.915 32.9692C157.992 33.3553 159.936 34.2661 161.562 35.6153C163.187 36.9645 164.441 38.7072 165.204 40.6778C165.967 42.6483 166.213 44.7813 165.92 46.874Z" fill="#FFB573"/>
<path d="M163.721 55.0203C161.68 53.0502 162.956 43.6182 163.987 40.9132C158.885 41.4032 142.395 41.3827 143.017 36.8301C143.64 32.2774 149.64 28.4086 159.446 31.6037C167.609 34.2679 169.65 38.3408 169.65 41.6686C169.772 48.5078 163.721 55.0203 163.721 55.0203Z" fill="#263238"/>
<path d="M169.087 55.1229C168.118 56.9755 166.463 58.3751 164.475 59.0223C161.873 59.8287 160.587 57.4298 161.322 54.8575C161.975 52.5505 164.128 49.3351 166.73 49.6617C169.332 49.9884 170.281 52.8261 169.087 55.1229Z" fill="#FFB573"/>
<path d="M96.3359 350.188L111.469 353.526C111.469 353.526 126.183 295.842 130.55 267.648C131.887 259.074 134.989 246.835 137.816 233.963C141.377 217.732 145.856 200.175 149.53 186.425C153.407 171.94 156.285 161.528 156.285 161.528L124.336 159.415C124.336 159.415 109.469 234.861 106.469 262.636C103.336 291.504 96.3359 350.188 96.3359 350.188Z" fill="#263238"/>
<path opacity="0.2" d="M137.812 233.942C141.374 217.712 145.853 200.154 149.527 186.404L146.17 179.259C138.241 188.732 136.21 218.038 137.812 233.942Z" fill="black"/>
<path d="M139.555 160.396C139.555 160.396 146.167 237.495 148.738 264.188C151.596 293.423 159.259 353.313 159.259 353.313H174.626C174.626 353.313 175.32 289.534 172.585 261.3C172.198 205.79 173.167 162.621 173.167 162.621L139.555 160.396Z" fill="#263238"/>
<path d="M157.304 353.67H177.039V347.77L156.539 346.637L157.304 353.67Z" fill="#407BFF"/>
<path d="M94.3516 350.128L112.382 354.109L113.668 348.28L94.7903 343.523L94.3516 350.128Z" fill="#407BFF"/>
<path d="M152.75 48.4866C152.75 49.2213 152.27 49.7927 151.791 49.7621C151.311 49.7315 150.954 49.109 151.005 48.3743C151.056 47.6396 151.484 47.0682 151.964 47.0988C152.444 47.1294 152.801 47.7519 152.75 48.4866Z" fill="#263238"/>
<path d="M144.422 47.9768C144.422 48.7115 143.942 49.2829 143.462 49.2523C142.983 49.2217 142.626 48.5993 142.677 47.8646C142.728 47.1299 143.156 46.5585 143.636 46.5891C144.116 46.6197 144.473 47.2013 144.422 47.9768Z" fill="#263238"/>
<path d="M146.327 48.4873C145.298 50.6772 143.977 52.717 142.398 54.5507C143.613 55.8573 145.868 55.449 145.868 55.449L146.327 48.4873Z" fill="#ED893E"/>
<path d="M148.852 57.6221C149.679 57.5755 150.488 57.3615 151.23 56.9932C151.971 56.6249 152.631 56.1098 153.168 55.4792C153.206 55.4394 153.227 55.3864 153.227 55.3313C153.227 55.2762 153.206 55.2232 153.168 55.1833C153.126 55.1446 153.072 55.123 153.015 55.123C152.958 55.123 152.903 55.1446 152.862 55.1833C152.256 55.8747 151.496 56.4141 150.644 56.7579C149.791 57.1018 148.87 57.2405 147.954 57.1629C147.926 57.1601 147.897 57.1629 147.87 57.1711C147.843 57.1794 147.818 57.1929 147.796 57.2109C147.774 57.229 147.756 57.2511 147.743 57.2762C147.73 57.3012 147.722 57.3286 147.719 57.3568C147.716 57.4147 147.736 57.4715 147.774 57.5152C147.812 57.5589 147.865 57.5863 147.923 57.5915C148.232 57.6204 148.542 57.6306 148.852 57.6221Z" fill="#263238"/>
<path d="M154.779 45.934C154.852 45.9257 154.922 45.9013 154.984 45.8626C155.08 45.7998 155.149 45.7015 155.173 45.5888C155.198 45.4761 155.178 45.3582 155.116 45.2605C154.752 44.6735 154.252 44.182 153.659 43.827C153.067 43.472 152.398 43.2638 151.708 43.2197C151.604 43.2357 151.51 43.2882 151.442 43.3677C151.373 43.4473 151.336 43.5486 151.336 43.6534C151.336 43.7582 151.373 43.8596 151.442 43.9391C151.51 44.0186 151.604 44.0711 151.708 44.0871C152.253 44.1273 152.78 44.2963 153.246 44.5801C153.713 44.864 154.106 45.2546 154.392 45.7197C154.43 45.7882 154.486 45.8445 154.555 45.8824C154.623 45.9203 154.701 45.9382 154.779 45.934Z" fill="#263238"/>
<path d="M140.314 44.8432C140.385 44.8382 140.453 44.8161 140.514 44.7788C140.574 44.7414 140.625 44.69 140.661 44.6288C140.921 44.1545 141.29 43.7482 141.737 43.4432C142.183 43.1381 142.696 42.9428 143.232 42.8731C143.346 42.8627 143.451 42.8095 143.527 42.7242C143.603 42.6388 143.644 42.5278 143.64 42.4137C143.633 42.2991 143.58 42.1921 143.494 42.1158C143.408 42.0394 143.296 41.9998 143.181 42.0054C142.496 42.0882 141.841 42.3345 141.271 42.7236C140.701 43.1126 140.233 43.633 139.906 44.2409C139.851 44.3398 139.837 44.4565 139.868 44.5655C139.898 44.6745 139.971 44.767 140.069 44.8228C140.146 44.8575 140.232 44.8647 140.314 44.8432Z" fill="#263238"/>
<path d="M158.692 366.224C159.505 366.205 160.312 366.095 161.101 365.898C161.142 365.888 161.18 365.866 161.209 365.836C161.238 365.805 161.257 365.766 161.264 365.724C161.275 365.684 161.273 365.642 161.258 365.604C161.243 365.565 161.217 365.532 161.182 365.51C160.856 365.295 157.978 363.469 156.937 364C156.825 364.059 156.73 364.146 156.661 364.254C156.593 364.361 156.555 364.485 156.55 364.612C156.513 364.822 156.531 365.038 156.6 365.239C156.67 365.441 156.789 365.622 156.948 365.765C157.459 366.115 158.075 366.277 158.692 366.224ZM160.478 365.591C158.917 365.908 157.723 365.846 157.244 365.428C157.135 365.332 157.053 365.208 157.007 365.07C156.96 364.933 156.95 364.785 156.978 364.642C156.978 364.479 157.06 364.418 157.121 364.387C157.662 364.122 159.315 364.898 160.478 365.591Z" fill="#407BFF"/>
<path d="M161.047 365.909C161.083 365.923 161.123 365.923 161.159 365.909C161.194 365.89 161.223 365.862 161.242 365.828C161.262 365.794 161.272 365.754 161.271 365.715C161.271 365.603 161.159 362.959 160.128 362.091C160.004 361.982 159.858 361.901 159.699 361.853C159.541 361.806 159.374 361.793 159.21 361.816C159.046 361.816 158.888 361.872 158.76 361.974C158.632 362.075 158.543 362.218 158.506 362.377C158.271 363.398 160.016 365.439 160.945 365.919C160.979 365.926 161.014 365.922 161.047 365.909ZM159.353 362.193C159.534 362.195 159.709 362.264 159.843 362.387C160.496 362.938 160.73 364.48 160.802 365.256C159.894 364.541 158.761 363.02 158.924 362.418C158.924 362.367 158.924 362.234 159.251 362.203H159.353V362.193Z" fill="#407BFF"/>
<path d="M95.6162 361.764L106.351 364.826C106.522 364.875 106.671 364.983 106.772 365.13C106.872 365.277 106.918 365.455 106.902 365.633L106.106 373.87C106.08 374.073 106.011 374.268 105.903 374.441C105.794 374.614 105.65 374.762 105.48 374.875C105.309 374.987 105.116 375.061 104.915 375.092C104.713 375.123 104.507 375.111 104.31 375.054C100.871 374.034 98.4224 373.105 94.106 371.87C91.4326 371.114 82.7285 367.991 79.555 365.827C76.3815 363.663 78.2489 360.325 79.7489 360.937C86.4938 363.673 91.2387 363.234 94.0346 361.958C94.5223 361.708 95.0827 361.639 95.6162 361.764Z" fill="#263238"/>
<path d="M92.1941 362.459C92.9828 362.655 93.7899 362.768 94.6022 362.795C94.646 362.798 94.6896 362.788 94.7277 362.766C94.7658 362.744 94.7966 362.712 94.8165 362.673C94.8406 362.639 94.8536 362.598 94.8536 362.555C94.8536 362.513 94.8406 362.472 94.8165 362.438C94.5614 362.152 92.2859 359.621 91.1532 359.835C91.0272 359.863 90.9104 359.922 90.8139 360.008C90.7174 360.094 90.6446 360.203 90.6022 360.325C90.5139 360.516 90.4742 360.726 90.4866 360.936C90.4991 361.147 90.5633 361.35 90.6736 361.53C91.0626 362 91.5978 362.327 92.1941 362.459ZM94.092 362.336C92.5002 362.214 91.3675 361.826 91.0308 361.315C90.962 361.188 90.926 361.046 90.926 360.902C90.926 360.757 90.962 360.615 91.0308 360.488C91.092 360.325 91.1736 360.294 91.2451 360.284C91.8267 360.152 93.1532 361.356 94.092 362.377V362.336Z" fill="#407BFF"/>
<path d="M94.5573 362.785C94.5975 362.795 94.6396 362.795 94.6798 362.785C94.7192 362.775 94.7553 362.755 94.784 362.726C94.8128 362.697 94.8332 362.661 94.843 362.622C94.843 362.52 95.4757 359.947 94.7308 358.824C94.6396 358.688 94.5208 358.571 94.3819 358.484C94.2431 358.396 94.0873 358.338 93.9247 358.314C93.7665 358.27 93.5981 358.28 93.4465 358.343C93.2948 358.406 93.1686 358.518 93.0879 358.661C92.5777 359.58 93.7206 361.989 94.4655 362.744C94.4922 362.765 94.5238 362.779 94.5573 362.785ZM93.9349 358.753C94.1094 358.802 94.2589 358.915 94.3532 359.069C94.843 359.784 94.6389 361.335 94.5063 362.132C93.8226 361.203 93.1696 359.437 93.4859 358.896C93.4859 358.845 93.5777 358.732 93.8634 358.773L93.9349 358.753Z" fill="#407BFF"/>
<path d="M164.62 78.2738C164.511 78.2564 164.4 78.2639 164.295 78.2958C164.19 78.3277 164.093 78.3831 164.013 78.4578C163.932 78.5326 163.869 78.6247 163.83 78.7272C163.79 78.8298 163.774 78.94 163.783 79.0496C164.14 84.521 155.62 94.3613 153.579 123.831C152.365 141.756 151.252 197.644 152.069 226.716C152.081 227.097 152.179 227.471 152.357 227.808C152.535 228.146 152.788 228.439 153.096 228.664C153.404 228.889 153.759 229.041 154.134 229.109C154.51 229.176 154.896 229.157 155.263 229.053C170.324 224.848 177.436 235.045 180.334 223.02C180.181 208.617 175.824 156.904 176.946 144.645C178.069 132.385 182.732 99.0773 183.895 90.1965C184.926 82.4794 168.834 79.0394 164.62 78.2738Z" fill="#407BFF"/>
<path opacity="0.7" d="M164.62 78.2738C164.511 78.2564 164.4 78.2639 164.295 78.2958C164.19 78.3277 164.093 78.3831 164.013 78.4578C163.932 78.5326 163.869 78.6247 163.83 78.7272C163.79 78.8298 163.774 78.94 163.783 79.0496C164.14 84.521 155.62 94.3613 153.579 123.831C152.365 141.756 151.252 197.644 152.069 226.716C152.081 227.097 152.179 227.471 152.357 227.808C152.535 228.146 152.788 228.439 153.096 228.664C153.404 228.889 153.759 229.041 154.134 229.109C154.51 229.176 154.896 229.157 155.263 229.053C170.324 224.848 177.436 235.045 180.334 223.02C180.181 208.617 175.824 156.904 176.946 144.645C178.069 132.385 182.732 99.0773 183.895 90.1965C184.926 82.4794 168.834 79.0394 164.62 78.2738Z" fill="white"/>
<path opacity="0.2" d="M174.545 103.252C173.882 107.805 173.627 126.199 178.004 135.049C178.739 128.925 179.698 121.646 180.627 114.634L174.545 103.252Z" fill="#407BFF"/>
<path d="M180.804 182.802L176.457 183.312L172.61 190.182C172.399 190.554 172.268 190.966 172.226 191.391C172.184 191.817 172.231 192.246 172.365 192.652L173.753 196.878C173.988 197.602 174.484 198.211 175.145 198.589C175.805 198.966 176.582 199.084 177.324 198.92L179.263 198.512C179.975 198.367 180.613 197.973 181.062 197.4C181.51 196.828 181.741 196.115 181.712 195.388L181.589 191.631C181.589 191.631 185.038 183.659 180.804 182.802Z" fill="#FFB573"/>
<path d="M183.183 86.7666C184.571 90.8497 185.856 94.8818 187.132 98.9649C188.408 103.048 189.683 107.131 190.887 111.214C192.091 115.297 193.254 119.472 194.326 123.729C194.857 125.862 195.346 128.016 195.816 130.272C196.03 131.405 196.244 132.559 196.418 133.784C196.499 134.417 196.591 134.998 196.642 135.703L196.734 136.724L196.785 137.877C196.805 138.265 196.805 138.653 196.785 139.041C196.785 139.449 196.785 139.837 196.734 140.153L196.642 141.174L196.53 142.093C196.387 143.328 196.203 144.451 196.02 145.574C195.652 147.799 195.224 149.943 194.785 152.066C193.908 156.312 192.928 160.467 191.938 164.601C190.948 168.735 189.897 172.859 188.877 176.973L185.816 189.314L171.04 185.302C173.326 177.33 175.408 169.215 177.336 161.151C178.275 157.068 179.152 153.066 179.938 149.075C180.326 147.033 180.693 145.094 180.959 143.175C181.112 142.215 181.234 141.266 181.316 140.409C181.395 139.731 181.422 139.049 181.397 138.367V137.938L181.326 137.387C181.326 137.04 181.203 136.581 181.142 136.183C180.999 135.325 180.816 134.417 180.612 133.488C180.193 131.63 179.693 129.711 179.152 127.782C178.132 123.913 176.836 119.993 175.52 116.094C172.918 108.295 169.989 100.445 166.969 92.8096L183.183 86.7666Z" fill="#407BFF"/>
<path opacity="0.7" d="M183.183 86.7666C184.571 90.8497 185.856 94.8818 187.132 98.9649C188.408 103.048 189.683 107.131 190.887 111.214C192.091 115.297 193.254 119.472 194.326 123.729C194.857 125.862 195.346 128.016 195.816 130.272C196.03 131.405 196.244 132.559 196.418 133.784C196.499 134.417 196.591 134.998 196.642 135.703L196.734 136.724L196.785 137.877C196.805 138.265 196.805 138.653 196.785 139.041C196.785 139.449 196.785 139.837 196.734 140.153L196.642 141.174L196.53 142.093C196.387 143.328 196.203 144.451 196.02 145.574C195.652 147.799 195.224 149.943 194.785 152.066C193.908 156.312 192.928 160.467 191.938 164.601C190.948 168.735 189.897 172.859 188.877 176.973L185.816 189.314L171.04 185.302C173.326 177.33 175.408 169.215 177.336 161.151C178.275 157.068 179.152 153.066 179.938 149.075C180.326 147.033 180.693 145.094 180.959 143.175C181.112 142.215 181.234 141.266 181.316 140.409C181.395 139.731 181.422 139.049 181.397 138.367V137.938L181.326 137.387C181.326 137.04 181.203 136.581 181.142 136.183C180.999 135.325 180.816 134.417 180.612 133.488C180.193 131.63 179.693 129.711 179.152 127.782C178.132 123.913 176.836 119.993 175.52 116.094C172.918 108.295 169.989 100.445 166.969 92.8096L183.183 86.7666Z" fill="white"/>
<path d="M144.775 77.5078C145 77.5062 145.22 77.5683 145.41 77.687C145.601 77.8057 145.753 77.9761 145.851 78.1782C145.948 78.3804 145.986 78.6061 145.96 78.8289C145.934 79.0518 145.845 79.2627 145.704 79.4371C143.275 82.2545 141.745 86.1232 138.867 98.5359C135.398 113.511 128.01 188.854 126.622 225.776C126.615 226.083 126.542 226.384 126.408 226.66C126.273 226.936 126.08 227.179 125.843 227.373C125.605 227.567 125.328 227.707 125.031 227.784C124.734 227.861 124.424 227.872 124.122 227.818C116.918 226.491 111.98 229.982 111.194 225.357C110.326 220.254 113.561 171.501 119.612 148.574C118.663 128.241 122.092 87.4502 128.939 82.0299C132.653 79.0186 140.551 77.5793 144.775 77.5078Z" fill="#407BFF"/>
<path opacity="0.7" d="M144.775 77.5078C145 77.5062 145.22 77.5683 145.41 77.687C145.601 77.8057 145.753 77.9761 145.851 78.1782C145.948 78.3804 145.986 78.6061 145.96 78.8289C145.934 79.0518 145.845 79.2627 145.704 79.4371C143.275 82.2545 141.745 86.1232 138.867 98.5359C135.398 113.511 128.01 188.854 126.622 225.776C126.615 226.083 126.542 226.384 126.408 226.66C126.273 226.936 126.08 227.179 125.843 227.373C125.605 227.567 125.328 227.707 125.031 227.784C124.734 227.861 124.424 227.872 124.122 227.818C116.918 226.491 111.98 229.982 111.194 225.357C110.326 220.254 113.561 171.501 119.612 148.574C118.663 128.241 122.092 87.4502 128.939 82.0299C132.653 79.0186 140.551 77.5793 144.775 77.5078Z" fill="white"/>
<path d="M148.739 87.624C148.739 87.624 139.922 112.398 136.82 133.161C136.575 138.806 139.259 149.738 141.433 154.505C145.973 144.614 148.81 138.785 149.259 133.161C149.984 124.699 151.177 87.7874 151.177 87.7874L148.739 87.624Z" fill="#263238"/>
<path d="M167.187 117.094C167.098 117.091 167.012 117.059 166.942 117.002C166.873 116.946 166.824 116.868 166.803 116.781C166.783 116.694 166.791 116.603 166.827 116.521C166.863 116.439 166.925 116.372 167.003 116.328L168.677 115.45C170.239 114.647 171.519 113.386 172.347 111.835C173.174 110.285 173.51 108.52 173.309 106.774L171.493 90.3189C171.359 89.0923 170.816 87.9465 169.952 87.0663C169.087 86.1861 167.952 85.6228 166.728 85.4672C165.505 85.3115 164.264 85.5726 163.207 86.2083C162.15 86.8441 161.338 87.8174 160.901 88.9715L155.024 104.436C154.391 106.075 154.271 107.868 154.681 109.577C155.092 111.285 156.012 112.828 157.319 114.001L158.728 115.277C158.802 115.353 158.844 115.456 158.844 115.563C158.844 115.67 158.802 115.772 158.728 115.849C158.651 115.923 158.549 115.965 158.442 115.965C158.335 115.965 158.233 115.923 158.156 115.849L156.748 114.583C155.323 113.296 154.323 111.606 153.88 109.737C153.438 107.869 153.573 105.91 154.268 104.12L160.197 88.6856C160.703 87.367 161.637 86.2564 162.849 85.5318C164.062 84.8072 165.482 84.5106 166.882 84.6894C168.283 84.8683 169.583 85.5122 170.575 86.5181C171.566 87.524 172.191 88.8336 172.35 90.2372L174.166 106.682C174.381 108.596 174.008 110.529 173.097 112.225C172.185 113.921 170.779 115.299 169.064 116.175L167.391 117.043C167.33 117.082 167.259 117.1 167.187 117.094Z" fill="#263238"/>
<path d="M172.248 93.9118C172.151 93.9126 172.057 93.8777 171.983 93.8138C171.91 93.7498 171.863 93.6612 171.85 93.5647C171.613 92.2413 170.941 91.0348 169.941 90.1363C168.941 89.2378 167.671 88.6984 166.33 88.6037C164.065 88.3179 160.983 89.0325 159.748 92.0131C159.73 92.066 159.702 92.1146 159.665 92.1561C159.628 92.1975 159.582 92.2309 159.532 92.2542C159.481 92.2775 159.426 92.2901 159.371 92.2914C159.315 92.2927 159.26 92.2825 159.208 92.2616C159.156 92.2407 159.11 92.2094 159.07 92.1697C159.031 92.13 159.001 92.0827 158.981 92.0307C158.961 91.9787 158.951 91.9232 158.953 91.8675C158.956 91.8118 158.969 91.7572 158.993 91.7069C159.683 90.372 160.767 89.2816 162.097 88.5833C163.427 87.8851 164.94 87.6128 166.43 87.8033C167.92 87.9938 169.316 88.6379 170.427 89.6484C171.539 90.6589 172.314 91.9869 172.646 93.4524C172.661 93.5566 172.634 93.6623 172.57 93.7465C172.507 93.8307 172.414 93.8864 172.309 93.9016L172.248 93.9118Z" fill="#263238"/>
<path d="M166.763 85.4699C166.71 85.4674 166.658 85.4541 166.61 85.431C166.562 85.4079 166.519 85.3754 166.484 85.3355C166.448 85.2955 166.422 85.2488 166.405 85.1983C166.388 85.1477 166.381 85.0943 166.386 85.0412C166.508 83.0507 166.222 79.4269 164.345 78.4878C164.249 78.4377 164.176 78.3515 164.144 78.2481C164.111 78.1448 164.121 78.0327 164.171 77.9366C164.221 77.8405 164.307 77.7682 164.411 77.7357C164.514 77.7031 164.626 77.713 164.722 77.7631C167.437 79.1615 167.192 84.49 167.151 85.0922C167.146 85.1925 167.103 85.2871 167.031 85.3572C166.959 85.4272 166.863 85.4675 166.763 85.4699Z" fill="#263238"/>
<path d="M159.364 115.685C159.262 116.45 158.782 117.011 158.282 116.94C157.782 116.869 157.456 116.215 157.558 115.46C157.66 114.705 158.129 114.134 158.629 114.205C159.129 114.277 159.456 114.93 159.364 115.685Z" fill="#263238"/>
<path d="M135.64 99.1386C134.997 100.762 133.6 101.742 132.579 101.323C131.559 100.905 131.161 99.2815 131.804 97.6177C132.446 95.9538 133.844 95.0147 134.865 95.4332C135.885 95.8517 136.273 97.5156 135.64 99.1386Z" fill="#263238"/>
<path d="M132.281 98.0873H132.199C132.094 98.0652 132.002 98.0024 131.942 97.9126C131.883 97.8227 131.862 97.7131 131.883 97.6076C133.23 90.901 138.801 80.2543 143.709 77.192C143.754 77.1535 143.806 77.1252 143.863 77.1088C143.919 77.0925 143.979 77.0886 144.037 77.0973C144.095 77.1061 144.151 77.1273 144.2 77.1596C144.249 77.1918 144.291 77.2344 144.322 77.2842C144.353 77.3341 144.373 77.3901 144.381 77.4485C144.389 77.5068 144.383 77.5661 144.366 77.6223C144.348 77.6785 144.319 77.7303 144.28 77.7741C144.24 77.8178 144.192 77.8526 144.138 77.8759C139.393 80.8668 133.995 91.146 132.679 97.7505C132.662 97.8442 132.613 97.9292 132.541 97.9908C132.468 98.0523 132.376 98.0864 132.281 98.0873Z" fill="#263238"/>
<path d="M136.799 99.4749C136.329 100.873 135.125 101.741 134.105 101.404C133.084 101.067 132.625 99.6484 133.084 98.2397C133.544 96.8311 134.758 95.9736 135.778 96.3105C136.799 96.6473 137.268 98.0662 136.799 99.4749Z" fill="white"/>
<path d="M136.872 99.6184C136.25 101.344 135.097 102.517 134.311 102.232C133.526 101.946 133.393 100.313 134.026 98.5773C134.658 96.8419 135.801 95.6782 136.587 95.964C137.372 96.2499 137.505 97.8831 136.872 99.6184Z" fill="#263238"/>
<path d="M168.09 116.808C167.999 117.564 167.509 118.125 167.009 118.064C166.509 118.003 166.182 117.329 166.284 116.574C166.386 115.818 166.866 115.257 167.366 115.318C167.866 115.379 168.192 116.043 168.09 116.808Z" fill="#263238"/>
<path d="M225.955 72.5777C229.364 81.8975 220.302 86.5828 214.364 100.312C208.425 114.042 222.751 130.415 244.741 130.772C266.731 131.13 267.425 110.061 264.017 94.943C260.608 79.8253 267.731 77.3652 266.221 65.8202C264.282 50.6514 242.435 39.1574 233.761 53.0809C226.047 52.3561 222.976 64.4319 225.955 72.5777Z" fill="#263238"/>
<path d="M291.088 198.032V196.848C291.068 196.279 290.925 195.722 290.67 195.214L286.976 187.926L282.65 187.109C279.588 190.406 282.65 196.98 282.65 196.98V198.032C282.65 198.893 282.931 199.731 283.451 200.418C283.97 201.105 284.699 201.604 285.527 201.839L286.109 202.013C286.708 202.171 287.336 202.187 287.942 202.058C288.548 201.93 289.116 201.662 289.6 201.275C290.084 200.888 290.47 200.393 290.729 199.83C290.987 199.267 291.11 198.651 291.088 198.032Z" fill="#FFC3BD"/>
<path d="M272.749 104.273L274.341 115.441L276.015 126.577C276.566 130.303 277.147 134.009 277.739 137.724L279.504 148.79L279.719 149.882C279.79 150.239 279.913 150.698 280.004 151.097L280.311 152.352L280.668 153.649C281.127 155.363 281.688 157.14 282.178 158.895C283.198 162.417 284.372 165.98 285.525 169.522C287.872 176.596 290.321 183.7 292.933 190.682L278.504 195.786L271.28 174.207C270.086 170.604 268.872 167 267.719 163.326C267.147 161.478 266.576 159.651 266.035 157.742L265.617 156.323L265.219 154.843C265.086 154.332 264.943 153.883 264.821 153.322L264.443 151.648L262.311 140.419C261.63 136.717 260.919 133.015 260.178 129.313L257.994 118.207L255.719 107.183L272.749 104.273Z" fill="#407BFF"/>
<path opacity="0.6" d="M272.749 104.273L274.341 115.441L276.015 126.577C276.566 130.303 277.147 134.009 277.739 137.724L279.504 148.79L279.719 149.882C279.79 150.239 279.913 150.698 280.004 151.097L280.311 152.352L280.668 153.649C281.127 155.363 281.688 157.14 282.178 158.895C283.198 162.417 284.372 165.98 285.525 169.522C287.872 176.596 290.321 183.7 292.933 190.682L278.504 195.786L271.28 174.207C270.086 170.604 268.872 167 267.719 163.326C267.147 161.478 266.576 159.651 266.035 157.742L265.617 156.323L265.219 154.843C265.086 154.332 264.943 153.883 264.821 153.322L264.443 151.648L262.311 140.419C261.63 136.717 260.919 133.015 260.178 129.313L257.994 118.207L255.719 107.183L272.749 104.273Z" fill="white"/>
<path d="M270.455 103.415C270.934 108.856 270.506 122.391 265.047 155.944H227.291C227.893 141.368 227.934 132.078 221.679 104.262C221.537 103.637 221.525 102.989 221.643 102.358C221.761 101.728 222.006 101.128 222.365 100.596C222.723 100.064 223.187 99.6118 223.727 99.2662C224.267 98.9205 224.873 98.6893 225.506 98.5867C229.192 97.981 232.908 97.5755 236.638 97.372C242.352 96.9632 248.088 96.9632 253.802 97.372C258.496 97.8007 263.587 98.648 266.669 99.2094C267.673 99.4 268.586 99.9145 269.27 100.674C269.954 101.434 270.37 102.396 270.455 103.415Z" fill="#263238"/>
<path d="M238.306 78.0391C239.387 83.5615 240.469 93.6876 236.602 97.3726C236.602 97.3726 241.438 103.252 248.846 103.252C256.255 103.252 253.775 97.3726 253.775 97.3726C247.653 95.9027 247.775 91.3296 248.846 87.0423L238.306 78.0391Z" fill="#FFC3BD"/>
<path opacity="0.2" d="M242.599 81.7139L248.834 87.0321C248.57 88.0357 248.392 89.0603 248.304 90.0945C245.946 89.7576 242.253 87.7467 241.742 85.1845C241.508 83.9698 242.395 82.2855 242.599 81.7139Z" fill="black"/>
<path d="M231.81 67.1983C233.249 76.3241 233.667 80.2133 238.749 84.4801C246.402 90.9008 257.29 87.1342 258.606 77.7634C259.79 69.3318 257.228 55.8166 247.902 53.0299C245.847 52.4047 243.667 52.3152 241.568 52.7699C239.469 53.2246 237.521 54.2083 235.909 55.6277C234.297 57.0472 233.074 58.8552 232.357 60.8803C231.639 62.9053 231.451 65.0802 231.81 67.1983Z" fill="#FFC3BD"/>
<path d="M233.321 73.7726C238.546 68.5973 240.342 61.4008 239.852 58.4609C244.883 59.8594 248.577 57.8791 248.352 57.0216C251.903 60.4923 258.342 63.2382 257.617 59.5021C256.893 55.7661 252.128 48.8758 242.189 51.3359C232.25 53.796 228.423 64.0038 228.566 68.1481C228.709 72.2925 233.321 73.7726 233.321 73.7726Z" fill="#263238"/>
<path d="M244.898 68.2289C244.97 68.984 245.419 69.5452 245.919 69.5044C246.419 69.4636 246.745 68.8106 246.674 68.0657C246.603 67.3208 246.143 66.7493 245.654 66.7901C245.164 66.831 244.898 67.484 244.898 68.2289Z" fill="#263238"/>
<path d="M253.377 67.4223C253.448 68.1672 253.907 68.7386 254.397 68.6876C254.887 68.6366 255.224 68.0039 255.152 67.259C255.081 66.5141 254.622 65.9427 254.132 65.9835C253.642 66.0243 253.305 66.6774 253.377 67.4223Z" fill="#263238"/>
<path d="M253.93 66.044L255.675 65.3604C255.675 65.3604 254.879 66.8501 253.93 66.044Z" fill="#263238"/>
<path d="M250.906 69.0156C251.731 70.6587 252.778 72.1804 254.018 73.5377C253.664 73.8451 253.246 74.0719 252.795 74.2023C252.344 74.3327 251.87 74.3637 251.406 74.2931L250.906 69.0156Z" fill="#ED847E"/>
<path d="M247.613 77.5787C247.983 77.604 248.355 77.604 248.725 77.5787C248.783 77.5711 248.835 77.5412 248.871 77.4955C248.908 77.4498 248.925 77.3918 248.919 77.3338C248.918 77.3051 248.911 77.277 248.898 77.2512C248.885 77.2254 248.867 77.2027 248.845 77.1844C248.823 77.1661 248.797 77.1526 248.769 77.145C248.742 77.1373 248.713 77.1356 248.684 77.14C247.756 77.2475 246.815 77.1355 245.937 76.8129C245.06 76.4903 244.271 75.9662 243.633 75.2828C243.594 75.2471 243.543 75.2265 243.49 75.2247C243.436 75.223 243.384 75.2402 243.343 75.2733C243.301 75.3064 243.272 75.3532 243.262 75.4054C243.252 75.4576 243.26 75.5118 243.286 75.5583C243.838 76.1642 244.505 76.6547 245.247 77.0014C245.99 77.3482 246.794 77.5444 247.613 77.5787Z" fill="#263238"/>
<path d="M229.782 74.6189C230.463 76.2713 231.768 77.5881 233.414 78.2835C235.598 79.1818 236.976 77.2627 236.598 75.0885C236.261 73.0469 234.71 70.2194 232.404 70.2602C231.902 70.2847 231.414 70.4325 230.982 70.6905C230.551 70.9486 230.19 71.3089 229.931 71.7397C229.671 72.1705 229.522 72.6586 229.496 73.1607C229.47 73.6629 229.568 74.1637 229.782 74.6189Z" fill="#FFC3BD"/>
<path d="M241.985 64.3081C242.072 64.3391 242.168 64.3421 242.257 64.3165C242.347 64.2909 242.426 64.238 242.485 64.1653C243.77 62.5836 246.393 62.7367 246.413 62.7367C246.529 62.7424 246.642 62.7032 246.73 62.6271C246.817 62.551 246.872 62.444 246.883 62.3285C246.888 62.2706 246.882 62.2121 246.864 62.1567C246.846 62.1013 246.818 62.05 246.779 62.0061C246.741 61.9622 246.694 61.9265 246.642 61.9012C246.59 61.876 246.532 61.8617 246.474 61.8592C246.352 61.8592 243.362 61.6755 241.801 63.6143C241.728 63.7056 241.694 63.8217 241.705 63.9379C241.717 64.0541 241.773 64.1613 241.862 64.2367L241.985 64.3081Z" fill="#263238"/>
<path d="M256.444 63.3795C256.54 63.3854 256.636 63.3591 256.716 63.3047C256.797 63.2503 256.857 63.1708 256.887 63.0787C256.917 62.9867 256.916 62.8872 256.884 62.7958C256.852 62.7043 256.79 62.6262 256.709 62.5734C256.138 62.1704 255.479 61.9092 254.787 61.8116C254.095 61.714 253.389 61.7828 252.729 62.0122C252.622 62.0593 252.537 62.1466 252.494 62.2552C252.45 62.3639 252.45 62.4854 252.495 62.5938C252.517 62.6478 252.55 62.6969 252.591 62.738C252.633 62.7792 252.682 62.8116 252.736 62.8335C252.79 62.8553 252.848 62.8662 252.907 62.8653C252.965 62.8645 253.023 62.852 253.076 62.8285C253.601 62.6539 254.159 62.6063 254.705 62.6896C255.252 62.773 255.771 62.985 256.219 63.3081C256.286 63.3515 256.364 63.3761 256.444 63.3795Z" fill="#263238"/>
<path d="M288.51 367.266L297.908 366.817L295.122 345.585L285.734 346.044L288.51 367.266Z" fill="#FFC3BD"/>
<g opacity="0.2">
<path d="M295.125 345.596L296.563 356.538L287.165 356.988L285.727 346.045L295.125 345.596Z" fill="black"/>
</g>
<path d="M265.052 155.944C265.052 155.944 276.879 227.654 281.695 255.613C286.716 284.685 298.022 353.108 298.022 353.108L285.593 355.149C285.593 355.149 268.838 286.655 262.124 258.175C254.838 227.093 237.185 185.414 237.369 156.026L265.052 155.944Z" fill="#407BFF"/>
<path opacity="0.2" d="M246.059 177.953C244.283 175.37 240.865 171.746 238.242 168.766C240.62 187.038 247.426 208.239 253.64 228.206C255.293 212.996 254.354 189.926 246.059 177.953Z" fill="black"/>
<path d="M230.531 365.827H239.837L240.46 344.269H231.143L230.531 365.827Z" fill="#FFC3BD"/>
<path d="M240.273 364.418H229.814C229.633 364.416 229.457 364.481 229.32 364.599C229.183 364.717 229.094 364.882 229.069 365.061L227.875 373.329C227.854 373.539 227.876 373.752 227.942 373.952C228.008 374.153 228.115 374.338 228.256 374.494C228.397 374.651 228.57 374.776 228.763 374.862C228.955 374.948 229.164 374.993 229.375 374.993C233.018 374.922 234.773 374.707 239.375 374.707C242.201 374.707 248.048 375.003 251.957 375.003C255.865 375.003 256.038 371.145 254.446 370.788C247.15 369.226 244.242 367.062 241.824 364.99C241.389 364.625 240.841 364.423 240.273 364.418Z" fill="#263238"/>
<g opacity="0.2">
<path d="M240.451 344.278L240.134 355.395H230.828L231.144 344.278H240.451Z" fill="black"/>
</g>
<path d="M254.43 155.944C254.43 155.944 250.654 228.573 248.103 256.848C245.44 286.267 242.236 352.934 242.236 352.934H229.644C229.644 352.934 227.399 286.522 228.277 257.512C229.226 225.868 221.624 185.333 226.756 155.944H254.43Z" fill="#407BFF"/>
<path d="M228.553 353.384L243.319 353.66L243.543 344.656L228.492 345.595L228.553 353.384Z" fill="#263238"/>
<path d="M243.76 366.081C244.555 366.154 245.351 365.952 246.015 365.51C246.165 365.376 246.28 365.207 246.349 365.018C246.419 364.83 246.441 364.627 246.413 364.428C246.406 364.308 246.368 364.192 246.304 364.09C246.24 363.988 246.151 363.904 246.046 363.846C244.903 363.214 241.189 365.112 240.77 365.336C240.731 365.358 240.7 365.391 240.68 365.431C240.66 365.471 240.652 365.516 240.658 365.561C240.664 365.606 240.684 365.648 240.715 365.681C240.746 365.714 240.787 365.736 240.832 365.744C241.795 365.95 242.775 366.062 243.76 366.081ZM245.423 364.152C245.564 364.149 245.703 364.177 245.832 364.234C245.875 364.256 245.911 364.29 245.936 364.331C245.961 364.373 245.974 364.42 245.974 364.469C245.997 364.598 245.985 364.731 245.94 364.855C245.896 364.978 245.819 365.088 245.719 365.173C245.158 365.683 243.628 365.775 241.566 365.428C242.77 364.785 244.074 364.354 245.423 364.152Z" fill="#407BFF"/>
<path d="M240.872 365.755H240.963C242.076 365.255 244.27 363.244 244.096 362.193C244.096 361.938 243.882 361.631 243.27 361.57C243.05 361.545 242.828 361.565 242.618 361.63C242.407 361.695 242.212 361.803 242.045 361.948C240.882 362.918 240.668 365.429 240.657 365.531C240.653 365.57 240.66 365.609 240.676 365.645C240.692 365.681 240.717 365.712 240.749 365.735C240.788 365.752 240.83 365.759 240.872 365.755ZM243.096 361.978H243.229C243.627 361.978 243.657 362.172 243.657 362.234C243.77 362.866 242.28 364.439 241.147 365.122C241.235 364.067 241.648 363.064 242.331 362.254C242.544 362.072 242.816 361.974 243.096 361.978Z" fill="#407BFF"/>
<path d="M297.8 364.419H287.341C287.257 364.414 287.173 364.427 287.095 364.458C287.017 364.489 286.946 364.537 286.889 364.599C286.831 364.66 286.788 364.734 286.762 364.814C286.736 364.894 286.728 364.979 286.739 365.062L287.27 373.33C287.332 373.779 287.55 374.192 287.886 374.497C288.221 374.801 288.654 374.977 289.106 374.994C292.739 374.923 294.453 374.708 299.045 374.708C301.882 374.708 307.79 375.005 311.698 375.005C315.606 375.005 315.004 371.146 313.31 370.789C305.688 369.227 302.361 367.063 299.474 364.991C298.987 364.633 298.403 364.434 297.8 364.419Z" fill="#263238"/>
<path d="M301.283 366.081C302.081 366.154 302.88 365.952 303.548 365.51C303.697 365.375 303.811 365.206 303.88 365.018C303.949 364.829 303.972 364.627 303.946 364.428C303.937 364.307 303.898 364.191 303.832 364.089C303.766 363.987 303.675 363.904 303.569 363.846C302.426 363.214 298.722 365.112 298.303 365.336C298.263 365.357 298.229 365.389 298.207 365.429C298.185 365.469 298.176 365.515 298.181 365.561C298.189 365.604 298.21 365.645 298.241 365.678C298.272 365.71 298.311 365.733 298.354 365.744C299.318 365.95 300.298 366.062 301.283 366.081ZM302.946 364.152C303.087 364.146 303.227 364.174 303.354 364.234C303.399 364.256 303.436 364.289 303.463 364.33C303.49 364.372 303.505 364.419 303.507 364.469C303.525 364.598 303.511 364.73 303.467 364.852C303.422 364.975 303.349 365.085 303.252 365.173C302.681 365.683 301.15 365.775 299.089 365.428C300.293 364.787 301.597 364.355 302.946 364.152Z" fill="#407BFF"/>
<path d="M298.404 365.755H298.496C299.598 365.255 301.792 363.244 301.619 362.193C301.619 361.937 301.404 361.631 300.792 361.57C300.575 361.545 300.354 361.565 300.145 361.63C299.936 361.696 299.743 361.804 299.578 361.948C298.404 362.917 298.19 365.429 298.18 365.531C298.179 365.569 298.186 365.608 298.202 365.643C298.218 365.679 298.242 365.71 298.272 365.735C298.314 365.752 298.359 365.759 298.404 365.755ZM300.619 361.978H300.751C301.149 361.978 301.18 362.172 301.19 362.233C301.292 362.866 299.802 364.438 298.67 365.122C298.761 364.067 299.174 363.066 299.853 362.254C300.067 362.074 300.339 361.976 300.619 361.978Z" fill="#407BFF"/>
<path d="M284.549 355.732L299.131 353.384L297.488 345.585L283.039 348.994L284.549 355.732Z" fill="#263238"/>
<path d="M245.477 66.8507L247.221 66.167C247.221 66.167 246.436 67.6568 245.477 66.8507Z" fill="#263238"/>
<path d="M226.678 153.73L225.719 157.119C225.586 157.374 225.892 157.65 226.331 157.65H265.229C265.576 157.65 265.851 157.476 265.872 157.262L266.219 153.883C266.219 153.648 265.943 153.444 265.576 153.444H227.3C227.181 153.434 227.061 153.455 226.951 153.505C226.842 153.555 226.748 153.632 226.678 153.73Z" fill="#263238"/>
<path d="M231.954 158.006H230.933C230.729 158.006 230.576 157.904 230.586 157.782L231.066 153.382C231.066 153.25 231.26 153.147 231.464 153.147H232.484C232.688 153.147 232.842 153.25 232.831 153.382L232.342 157.782C232.331 157.904 232.158 158.006 231.954 158.006Z" fill="#407BFF"/>
<path d="M262.353 158.007H261.333C261.129 158.007 260.966 157.905 260.986 157.783L261.466 153.383C261.466 153.251 261.66 153.148 261.864 153.148H262.884C263.088 153.148 263.241 153.251 263.231 153.383L262.751 157.783C262.731 157.905 262.558 158.007 262.353 158.007Z" fill="#407BFF"/>
<path d="M247.212 158.007H246.191C245.987 158.007 245.834 157.905 245.844 157.783L246.324 153.383C246.324 153.251 246.518 153.148 246.722 153.148H247.742C247.946 153.148 248.099 153.251 248.079 153.383L247.599 157.783C247.599 157.905 247.416 158.007 247.212 158.007Z" fill="#407BFF"/>
<path d="M234.966 97.0664C229.037 97.6074 219.976 96.4846 220.251 105.58C220.527 114.675 218.762 138.765 219.231 150.045C219.7 161.325 216.761 234.361 221.517 255.532C222.353 259.258 253.068 258.778 256.782 258.421V255.063C256.782 255.063 279.098 252.062 284.619 253.021C284.139 240.302 271.782 176.054 271.302 158.007C270.823 139.96 272.853 108.948 272.731 104.028C272.608 99.108 262.833 96.9439 256.843 97.0664C258.17 101.507 255.241 109.847 250.557 119.146C239.037 107.917 235.639 102.344 234.966 97.0664Z" fill="#407BFF"/>
<path opacity="0.7" d="M234.966 97.0664C229.037 97.6074 219.976 96.4846 220.251 105.58C220.527 114.675 218.762 138.765 219.231 150.045C219.7 161.325 216.761 234.361 221.517 255.532C222.353 259.258 253.068 258.778 256.782 258.421V255.063C256.782 255.063 279.098 252.062 284.619 253.021C284.139 240.302 271.782 176.054 271.302 158.007C270.823 139.96 272.853 108.948 272.731 104.028C272.608 99.108 262.833 96.9439 256.843 97.0664C258.17 101.507 255.241 109.847 250.557 119.146C239.037 107.917 235.639 102.344 234.966 97.0664Z" fill="white"/>
<path opacity="0.2" d="M223.679 118.635L219.883 121.319C219.587 129.179 219.189 137.989 219.148 144.797C222.679 136.988 224.669 125.719 223.679 118.635Z" fill="#407BFF"/>
<path d="M235.774 110.479C235.582 110.766 235.374 111.042 235.152 111.306L234.937 111.551L234.825 111.674L234.621 111.888L234.213 112.327L233.397 113.235C232.846 113.838 232.315 114.46 231.784 115.093C230.723 116.359 229.703 117.649 228.723 118.962C226.722 121.585 224.859 124.311 223.142 127.128C219.767 132.33 217.329 138.082 215.937 144.124C215.68 145.472 215.52 146.837 215.458 148.207C215.521 148.889 215.719 149.552 216.039 150.157C217.335 152.901 218.893 155.513 220.693 157.956C222.58 160.651 224.723 163.274 226.917 165.867C228.019 167.173 229.162 168.439 230.315 169.695C231.468 170.95 232.672 172.236 233.795 173.349L222.795 183.986C221.458 182.526 220.274 181.199 219.039 179.8L215.437 175.585C213.05 172.757 210.754 169.817 208.488 166.734C206.029 163.478 203.903 159.983 202.142 156.302C201.626 155.162 201.187 153.989 200.825 152.791C200.613 152.077 200.446 151.351 200.325 150.616C200.247 150.194 200.192 149.768 200.162 149.34C200.121 148.892 200.104 148.443 200.111 147.993C200.135 145.801 200.323 143.614 200.672 141.45C201.379 137.362 202.521 133.361 204.08 129.517C205.547 125.877 207.252 122.337 209.182 118.921C211.06 115.553 213.121 112.337 215.254 109.193C216.335 107.621 217.437 106.08 218.591 104.559L220.335 102.282L221.244 101.139L221.703 100.568L221.937 100.292L222.039 100.159L221.897 100.323C221.713 100.557 221.539 100.792 221.376 101.037L235.774 110.479Z" fill="#407BFF"/>
<path opacity="0.7" d="M235.774 110.479C235.582 110.766 235.374 111.042 235.152 111.306L234.937 111.551L234.825 111.674L234.621 111.888L234.213 112.327L233.397 113.235C232.846 113.838 232.315 114.46 231.784 115.093C230.723 116.359 229.703 117.649 228.723 118.962C226.722 121.585 224.859 124.311 223.142 127.128C219.767 132.33 217.329 138.082 215.937 144.124C215.68 145.472 215.52 146.837 215.458 148.207C215.521 148.889 215.719 149.552 216.039 150.157C217.335 152.901 218.893 155.513 220.693 157.956C222.58 160.651 224.723 163.274 226.917 165.867C228.019 167.173 229.162 168.439 230.315 169.695C231.468 170.95 232.672 172.236 233.795 173.349L222.795 183.986C221.458 182.526 220.274 181.199 219.039 179.8L215.437 175.585C213.05 172.757 210.754 169.817 208.488 166.734C206.029 163.478 203.903 159.983 202.142 156.302C201.626 155.162 201.187 153.989 200.825 152.791C200.613 152.077 200.446 151.351 200.325 150.616C200.247 150.194 200.192 149.768 200.162 149.34C200.121 148.892 200.104 148.443 200.111 147.993C200.135 145.801 200.323 143.614 200.672 141.45C201.379 137.362 202.521 133.361 204.08 129.517C205.547 125.877 207.252 122.337 209.182 118.921C211.06 115.553 213.121 112.337 215.254 109.193C216.335 107.621 217.437 106.08 218.591 104.559L220.335 102.282L221.244 101.139L221.703 100.568L221.937 100.292L222.039 100.159L221.897 100.323C221.713 100.557 221.539 100.792 221.376 101.037L235.774 110.479Z" fill="white"/>
<path opacity="0.3" d="M250.57 119.146C251.642 140.929 257.458 216.895 256.795 255.062L258.57 254.827C258.57 254.827 255.815 196.133 254.57 170.45C253.325 144.767 250.57 119.146 250.57 119.146Z" fill="#407BFF"/>
<path opacity="0.3" d="M232.941 173.533L222.043 185.333C222.043 189.294 219.278 197.215 226.604 200.094C233.931 202.972 234.125 182.087 232.941 173.533Z" fill="#407BFF"/>
<path opacity="0.3" d="M268.473 173.165L273.269 185.19C273.412 189.273 274.81 197.439 271.973 200.553C269.136 203.666 268.31 182.015 268.473 173.165Z" fill="#407BFF"/>
<path d="M256.557 126.73L268.527 126.648C268.646 126.653 268.765 126.633 268.875 126.587C268.986 126.542 269.085 126.474 269.167 126.386C269.248 126.299 269.31 126.195 269.347 126.082C269.385 125.968 269.397 125.848 269.384 125.73L268.721 120.054C268.681 119.808 268.558 119.584 268.372 119.418C268.186 119.253 267.949 119.156 267.7 119.146L255.721 119.217C255.602 119.213 255.484 119.235 255.374 119.281C255.264 119.327 255.166 119.396 255.084 119.483C255.003 119.569 254.942 119.673 254.904 119.785C254.865 119.898 254.852 120.017 254.863 120.136L255.527 125.821C255.569 126.068 255.694 126.293 255.881 126.458C256.069 126.623 256.307 126.719 256.557 126.73Z" fill="white" stroke="#407BFF" stroke-width="0.375" stroke-miterlimit="10"/>
</svg>
