<svg width="352" height="352" viewBox="0 0 352 352" fill="none" xmlns="http://www.w3.org/2000/svg">
<path d="M282.901 294.693L281.435 314.016L271.713 313.564L271.398 293.568L282.901 294.693Z" fill="#CE7A63"/>
<path d="M272.432 312.365L281.379 312.628C281.542 312.633 281.699 312.694 281.823 312.801C281.948 312.908 282.031 313.055 282.06 313.216L283.464 320.572C283.525 320.885 283.461 321.21 283.284 321.476C283.107 321.742 282.833 321.927 282.521 321.99H282.269C279.043 321.833 276.183 321.57 272.17 321.454C267.425 321.318 268.619 321.917 263.045 321.833C259.683 321.78 259.18 317.934 260.615 317.787C267.152 317.157 267.885 315.213 270.473 312.943C271.033 312.515 271.73 312.31 272.432 312.365Z" fill="#263238"/>
<path d="M323.297 294.041L324.942 312.345L315.231 313.049L311.742 294.283L323.297 294.041Z" fill="#CE7A63"/>
<path d="M315.881 311.935L324.827 311.63C324.992 311.625 325.153 311.677 325.284 311.776C325.416 311.875 325.51 312.017 325.55 312.177L327.404 319.416C327.445 319.569 327.456 319.728 327.436 319.884C327.415 320.041 327.364 320.192 327.285 320.329C327.206 320.466 327.101 320.585 326.976 320.681C326.851 320.777 326.708 320.847 326.556 320.887H326.304C323.078 320.94 320.207 320.887 316.195 320.992C311.46 321.16 312.675 321.686 307.112 321.959C303.76 322.117 303.016 318.302 304.43 318.071C310.915 317.021 311.522 315.035 313.953 312.607C314.493 312.156 315.178 311.917 315.881 311.935Z" fill="#263238"/>
<path d="M284.658 302.751C285.81 291.193 290.483 244.803 288.408 223.178C288.408 223.178 293.458 188.787 293.877 171.471L294.191 156.057L267.142 160.764C267.142 160.764 266.964 211 267.142 223.651C267.435 245.034 269.478 302.541 269.478 302.541L284.658 302.751Z" fill="#407BFF"/>
<path opacity="0.1" d="M292.104 174.035L293.477 179.289C292.743 189.691 291.182 202.573 289.988 211.694C287.293 198.802 286.892 185.533 288.804 172.501L292.104 174.035Z" fill="black"/>
<path d="M325.809 301.364C325.212 289.995 322.132 244.729 316.621 224.323C316.621 224.323 320.194 189.533 314.159 160.018L286.125 162.035C286.125 162.035 293.595 211.777 295.732 225.458C298.875 245.727 310.859 303.36 310.859 303.36L325.809 301.364Z" fill="#407BFF"/>
<path d="M287.369 27.2246C293.141 26.8043 302.727 27.4768 305.094 42.1347C307.462 56.7926 311.789 62.0358 305.094 64.7363C305.094 64.7363 305.011 59.9869 294.231 62.7714C283.451 65.5558 278.307 61.7206 278.307 63.8221C278.307 63.8221 275.489 64.8098 275.164 58.9151C274.839 53.0204 276.348 42.2083 275.426 36.7234C274.504 31.2385 283.838 27.4873 287.369 27.2246Z" fill="#263238"/>
<path d="M245.391 99.4527L238.477 92.5178C238.247 92.2873 238.065 92.0136 237.941 91.7125C237.817 91.4114 237.754 91.0888 237.754 90.763V88.1887C237.754 87.7089 237.615 87.2394 237.355 86.8368C237.094 86.4341 236.724 86.1155 236.287 85.9191L234.36 85.068C234.083 84.9435 233.83 84.7689 233.616 84.5531L231.845 82.7774C231.425 82.3565 230.868 82.1015 230.275 82.059C229.683 82.0166 229.095 82.1895 228.619 82.5462L227.655 83.2712C227.193 83.6221 226.867 84.1237 226.733 84.6897L225.685 89.0083C225.571 89.4848 225.601 89.985 225.773 90.444C225.945 90.903 226.25 91.2996 226.649 91.5826L230.924 94.6613L233.375 96.2689C233.58 96.4013 233.764 96.5643 233.92 96.7523L241.106 105.41L245.391 99.4527Z" fill="#CE7A63"/>
<path d="M277.952 67.5205C277.952 67.5205 268.408 68.3821 261.944 84.1328C255.48 99.8835 251.122 100.724 248.891 99.4527C247.602 98.7067 245.748 97.3512 244.47 96.4265C243.558 95.7436 237.734 103.782 238.341 104.528C240.751 107.564 247.162 114.468 254.202 112.577C263.735 110.002 270.713 96.4055 271.205 92.2236C271.697 88.0416 277.952 67.5205 277.952 67.5205Z" fill="#407BFF"/>
<path opacity="0.8" d="M277.952 67.5205C277.952 67.5205 268.408 68.3821 261.944 84.1328C255.48 99.8835 251.122 100.724 248.891 99.4527C247.602 98.7067 245.748 97.3512 244.47 96.4265C243.558 95.7436 237.734 103.782 238.341 104.528C240.751 107.564 247.162 114.468 254.202 112.577C263.735 110.002 270.713 96.4055 271.205 92.2236C271.697 88.0416 277.952 67.5205 277.952 67.5205Z" fill="white"/>
<path opacity="0.1" d="M271.203 92.2244C270.858 95.1455 267.348 102.658 262.016 107.796C262.279 97.677 264.604 87.7185 268.846 78.5332L273.393 83.125C272.5 86.1163 271.769 89.1539 271.203 92.2244Z" fill="black"/>
<path d="M304.858 67.4573C304.514 67.3404 304.164 67.2422 303.81 67.1631V72.2802H279.275V67.3102L278.227 67.4573L275.168 69.7479C275.168 69.7479 268.663 83.933 267.102 119.133V164.998H317.042L304.858 67.4573Z" fill="#407BFF"/>
<path d="M296.902 64.6417C295.446 60.1235 295.749 53.6299 296.242 49.5635L286.457 59.2619C287.078 60.9859 287.29 62.8317 287.075 64.6522C287.01 65.0762 286.81 65.4676 286.503 65.7671C286.197 66.0666 285.802 66.258 285.378 66.3124L281.345 66.7747L280.727 70.8516L281.984 73.6466L287.075 74.1615L294.199 72.8165L303.491 67.4262C302.173 67.005 300.808 66.7509 299.427 66.6696C298.875 66.557 298.359 66.3144 297.92 65.9617C297.481 65.609 297.132 65.1566 296.902 64.6417Z" fill="#CE7A63"/>
<path opacity="0.2" d="M292.285 54.2715L286.648 59.8089C286.95 60.8349 287.129 61.893 287.183 62.9612C288.507 62.6249 289.73 61.9711 290.746 61.0559C291.763 60.1407 292.542 58.9916 293.018 57.7074C293.479 56.0367 292.871 54.4081 292.285 54.2715Z" fill="black"/>
<path d="M297.709 42.229C297.29 49.6788 297.416 54.0604 293.676 57.8956C288.071 63.6747 278.873 60.2703 277.081 52.8625C275.457 46.1483 276.432 35.1155 283.692 32.1208C285.289 31.4531 287.03 31.2064 288.749 31.4042C290.468 31.602 292.108 32.2377 293.513 33.2508C294.918 34.264 296.041 35.6209 296.776 37.1924C297.51 38.7639 297.831 40.4978 297.709 42.229Z" fill="#CE7A63"/>
<path d="M286.104 44.4257C286.104 45.0352 285.79 45.529 285.392 45.529C284.994 45.529 284.68 45.0457 284.68 44.4257C284.68 43.8058 284.994 43.375 285.392 43.375C285.79 43.375 286.104 43.8268 286.104 44.4257Z" fill="#263238"/>
<path d="M279.276 44.4568C279.276 45.0557 278.962 45.5075 278.564 45.5075C278.166 45.5075 277.852 45.0242 277.852 44.4568C277.852 43.8894 278.166 43.3535 278.553 43.3535C278.941 43.3535 279.276 43.8474 279.276 44.4568Z" fill="#263238"/>
<path d="M288.666 40.9793C288.722 40.96 288.776 40.9316 288.823 40.8953C288.877 40.8167 288.899 40.7202 288.883 40.6261C288.867 40.532 288.816 40.4477 288.739 40.3909C288.287 40.0539 287.762 39.8295 287.206 39.7363C286.651 39.6431 286.081 39.6838 285.544 39.855C285.457 39.8901 285.387 39.9584 285.349 40.045C285.312 40.1317 285.311 40.2296 285.345 40.3174C285.38 40.405 285.448 40.4751 285.534 40.5125C285.621 40.5499 285.718 40.5515 285.806 40.517C286.233 40.3875 286.684 40.3609 287.122 40.4394C287.561 40.5179 287.975 40.6994 288.331 40.9688C288.381 40.999 288.438 41.0158 288.497 41.0176C288.556 41.0194 288.614 41.0063 288.666 40.9793Z" fill="#263238"/>
<path d="M276.127 41.0315C276.182 41.0524 276.242 41.0586 276.301 41.0494C276.36 41.0401 276.415 41.0159 276.462 40.979C276.816 40.715 277.227 40.5369 277.661 40.4585C278.095 40.3801 278.542 40.4036 278.966 40.5272C279.051 40.5535 279.144 40.5465 279.224 40.5076C279.305 40.4687 279.368 40.4008 279.401 40.3173C279.434 40.2339 279.435 40.1411 279.402 40.0573C279.37 39.9735 279.308 39.9049 279.228 39.8652C278.689 39.6922 278.118 39.6506 277.56 39.7438C277.002 39.837 276.475 40.0623 276.022 40.4011C275.985 40.4273 275.953 40.4606 275.929 40.4991C275.904 40.5375 275.888 40.5805 275.88 40.6253C275.872 40.6702 275.873 40.7162 275.883 40.7607C275.893 40.8051 275.912 40.8472 275.938 40.8844C275.984 40.9517 276.05 41.003 276.127 41.0315Z" fill="#263238"/>
<path d="M297.618 45.4865C297.083 44.9478 296.446 44.5209 295.744 44.2305C295.043 43.9401 294.291 43.7921 293.533 43.7948H290.117C290.14 42.8195 289.775 41.8752 289.103 41.1698C288.431 40.4643 287.507 40.0555 286.535 40.0332C285.562 40.0109 284.621 40.377 283.917 41.0509C283.214 41.7248 282.806 42.6514 282.784 43.6267C282.656 43.5733 282.519 43.5457 282.381 43.5457C282.242 43.5457 282.105 43.5733 281.977 43.6267C281.908 42.6743 281.473 41.7859 280.765 41.1485C280.056 40.5111 279.128 40.1743 278.176 40.209C277.225 40.2437 276.324 40.6472 275.663 41.3346C275.002 42.022 274.633 42.9397 274.633 43.8947C274.633 44.8496 275.002 45.7673 275.663 46.4547C276.324 47.1421 277.225 47.5456 278.176 47.5804C279.128 47.6151 280.056 47.2783 280.765 46.6408C281.473 46.0034 281.908 45.115 281.977 44.1626C282.084 44.0756 282.217 44.028 282.355 44.028C282.492 44.028 282.625 44.0756 282.732 44.1626C282.718 45.138 283.091 46.0789 283.769 46.7785C284.446 47.478 285.373 47.8788 286.346 47.8928C287.318 47.9067 288.257 47.5326 288.954 46.8528C289.651 46.1729 290.051 45.2431 290.065 44.2677H293.48C294.177 44.2671 294.866 44.4042 295.51 44.671C296.153 44.9378 296.738 45.3292 297.231 45.8228L298.331 46.9366L298.666 46.6004L297.618 45.4865ZM278.363 47.2833C277.726 47.2854 277.103 47.0977 276.572 46.7441C276.042 46.3904 275.628 45.8867 275.383 45.2969C275.139 44.707 275.074 44.0575 275.198 43.4308C275.321 42.8041 275.628 42.2283 276.078 41.7766C276.529 41.3248 277.103 41.0174 277.728 40.8932C278.353 40.7691 279 40.8339 279.588 41.0793C280.176 41.3248 280.679 41.7399 281.031 42.272C281.384 42.804 281.571 43.4292 281.569 44.068C281.566 44.9199 281.227 45.7361 280.627 46.3385C280.026 46.9409 279.212 47.2806 278.363 47.2833ZM286.451 47.2833C285.814 47.2833 285.192 47.0939 284.663 46.7389C284.134 46.384 283.721 45.8796 283.478 45.2896C283.235 44.6995 283.172 44.0504 283.297 43.4244C283.422 42.7983 283.729 42.2236 284.18 41.7728C284.631 41.3221 285.205 41.0157 285.83 40.8925C286.454 40.7692 287.101 40.8346 287.689 41.0803C288.276 41.3261 288.778 41.7412 289.13 42.273C289.482 42.8049 289.669 43.4296 289.667 44.068C289.667 44.4912 289.584 44.9101 289.422 45.3009C289.26 45.6917 289.023 46.0466 288.724 46.3453C288.426 46.644 288.071 46.8806 287.681 47.0416C287.291 47.2026 286.873 47.2847 286.451 47.2833Z" fill="#407BFF"/>
<path opacity="0.6" d="M297.618 45.4865C297.083 44.9478 296.446 44.5209 295.744 44.2305C295.043 43.9401 294.291 43.7921 293.533 43.7948H290.117C290.14 42.8195 289.775 41.8752 289.103 41.1698C288.431 40.4643 287.507 40.0555 286.535 40.0332C285.562 40.0109 284.621 40.377 283.917 41.0509C283.214 41.7248 282.806 42.6514 282.784 43.6267C282.656 43.5733 282.519 43.5457 282.381 43.5457C282.242 43.5457 282.105 43.5733 281.977 43.6267C281.908 42.6743 281.473 41.7859 280.765 41.1485C280.056 40.5111 279.128 40.1743 278.176 40.209C277.225 40.2437 276.324 40.6472 275.663 41.3346C275.002 42.022 274.633 42.9397 274.633 43.8947C274.633 44.8496 275.002 45.7673 275.663 46.4547C276.324 47.1421 277.225 47.5456 278.176 47.5804C279.128 47.6151 280.056 47.2783 280.765 46.6408C281.473 46.0034 281.908 45.115 281.977 44.1626C282.084 44.0756 282.217 44.028 282.355 44.028C282.492 44.028 282.625 44.0756 282.732 44.1626C282.718 45.138 283.091 46.0789 283.769 46.7785C284.446 47.478 285.373 47.8788 286.346 47.8928C287.318 47.9067 288.257 47.5326 288.954 46.8528C289.651 46.1729 290.051 45.2431 290.065 44.2677H293.48C294.177 44.2671 294.866 44.4042 295.51 44.671C296.153 44.9378 296.738 45.3292 297.231 45.8228L298.331 46.9366L298.666 46.6004L297.618 45.4865ZM278.363 47.2833C277.726 47.2854 277.103 47.0977 276.572 46.7441C276.042 46.3904 275.628 45.8867 275.383 45.2969C275.139 44.707 275.074 44.0575 275.198 43.4308C275.321 42.8041 275.628 42.2283 276.078 41.7766C276.529 41.3248 277.103 41.0174 277.728 40.8932C278.353 40.7691 279 40.8339 279.588 41.0793C280.176 41.3248 280.679 41.7399 281.031 42.272C281.384 42.804 281.571 43.4292 281.569 44.068C281.566 44.9199 281.227 45.7361 280.627 46.3385C280.026 46.9409 279.212 47.2806 278.363 47.2833ZM286.451 47.2833C285.814 47.2833 285.192 47.0939 284.663 46.7389C284.134 46.384 283.721 45.8796 283.478 45.2896C283.235 44.6995 283.172 44.0504 283.297 43.4244C283.422 42.7983 283.729 42.2236 284.18 41.7728C284.631 41.3221 285.205 41.0157 285.83 40.8925C286.454 40.7692 287.101 40.8346 287.689 41.0803C288.276 41.3261 288.778 41.7412 289.13 42.273C289.482 42.8049 289.669 43.4296 289.667 44.068C289.667 44.4912 289.584 44.9101 289.422 45.3009C289.26 45.6917 289.023 46.0466 288.724 46.3453C288.426 46.644 288.071 46.8806 287.681 47.0416C287.291 47.2026 286.873 47.2847 286.451 47.2833Z" fill="white"/>
<path d="M301.38 49.1645C300.383 50.7544 298.802 51.8868 296.98 52.3167C294.56 52.8526 293.481 50.6566 294.256 48.429C294.958 46.4326 297.074 43.7427 299.441 44.226C301.809 44.7093 302.574 47.1891 301.38 49.1645Z" fill="#CE7A63"/>
<path d="M282.144 44.4355C281.429 46.2897 280.463 48.0364 279.273 49.6262C279.689 49.9181 280.162 50.117 280.661 50.2094C281.16 50.3019 281.673 50.2858 282.165 50.1621L282.144 44.4355Z" fill="#BA4D3C"/>
<path opacity="0.1" d="M267.727 159.346L268.156 164.295L304.194 166.207V159.346H267.727Z" fill="black"/>
<path d="M281.808 66.5117C281.808 66.5117 279.87 71.1665 284.951 71.7655C290.032 72.3644 300.236 66.5117 300.236 66.5117L302.415 67.0161C302.415 67.0161 302.352 75.4221 291.205 78.6478C291.205 78.6478 287.979 74.4449 284.762 74.4449C281.546 74.4449 277.293 77.8388 277.293 77.8388C277.293 77.8388 275.198 72.3328 280.666 66.6483L281.808 66.5117Z" fill="#407BFF"/>
<g opacity="0.2">
<path d="M281.8 66.5117C281.8 66.5117 279.862 71.1665 284.943 71.7655C290.024 72.3644 300.228 66.5117 300.228 66.5117L302.407 67.0161C302.407 67.0161 302.344 75.4221 291.197 78.6478C291.197 78.6478 287.971 74.4449 284.755 74.4449C281.538 74.4449 277.285 77.8388 277.285 77.8388C277.285 77.8388 275.19 72.3328 280.658 66.6483L281.8 66.5117Z" fill="black"/>
</g>
<path d="M281.808 66.5117C281.808 66.5117 274.737 69.5063 272.139 88.6615C269.541 107.817 268.608 143.742 269.31 160.532C270.012 177.323 270.966 188.188 265.78 187.484C265.78 187.484 265.308 160.532 265.78 130.502C266.251 100.472 263.182 67.0686 281.808 66.5117Z" fill="#407BFF"/>
<path opacity="0.8" d="M281.808 66.5117C281.808 66.5117 274.737 69.5063 272.139 88.6615C269.541 107.817 268.608 143.742 269.31 160.532C270.012 177.323 270.966 188.188 265.78 187.484C265.78 187.484 265.308 160.532 265.78 130.502C266.251 100.472 263.182 67.0686 281.808 66.5117Z" fill="white"/>
<path d="M303.02 66.5117C303.02 66.5117 294.535 71.2401 293.592 101.186C292.649 131.133 292.963 187.873 303.02 188.819C313.077 189.764 324.077 184.09 324.077 184.09C324.077 184.09 323.365 173.225 321.49 159.471C319.918 147.976 317.299 134.463 316.252 123.567C315.057 110.958 321.909 76.2837 317.509 72.8162C313.109 69.3487 303.02 66.5117 303.02 66.5117Z" fill="#407BFF"/>
<path opacity="0.8" d="M303.02 66.5117C303.02 66.5117 294.535 71.2401 293.592 101.186C292.649 131.133 292.963 187.873 303.02 188.819C313.077 189.764 324.077 184.09 324.077 184.09C324.077 184.09 323.365 173.225 321.49 159.471C319.918 147.976 317.299 134.463 316.252 123.567C315.057 110.958 321.909 76.2837 317.509 72.8162C313.109 69.3487 303.02 66.5117 303.02 66.5117Z" fill="white"/>
<path opacity="0.1" d="M312.932 83.6914L318.317 91.8872C317.657 99.3265 316.683 107.648 316.222 114.436C309.769 101.155 306.5 83.6914 306.5 83.6914L310.051 80.4131L312.932 83.6914Z" fill="black"/>
<path d="M283.636 53.9448C283.339 53.9953 283.037 54.0199 282.735 54.0183C282.711 54.0198 282.687 54.0162 282.664 54.0079C282.641 53.9995 282.62 53.9866 282.603 53.9699C282.585 53.9532 282.571 53.933 282.561 53.9106C282.552 53.8882 282.547 53.8641 282.547 53.8397C282.55 53.7914 282.571 53.746 282.606 53.7127C282.641 53.6795 282.687 53.661 282.735 53.6611C283.498 53.6779 284.254 53.5145 284.942 53.1841C285.63 52.8538 286.23 52.3656 286.695 51.7592C286.711 51.743 286.73 51.7301 286.75 51.7213C286.771 51.7125 286.793 51.708 286.816 51.708C286.838 51.708 286.861 51.7125 286.881 51.7213C286.902 51.7301 286.921 51.743 286.936 51.7592C286.956 51.771 286.974 51.7868 286.987 51.8056C287.001 51.8244 287.011 51.8459 287.015 51.8686C287.02 51.8913 287.021 51.9148 287.016 51.9375C287.011 51.9603 287.002 51.9819 286.989 52.0009C286.588 52.5336 286.085 52.9802 285.509 53.3141C284.933 53.648 284.297 53.8625 283.636 53.9448Z" fill="#263238"/>
<path d="M280.162 30.6925C280.162 30.6925 274.379 38.6677 277.668 39.0985C280.958 39.5293 287.715 37.5854 292.104 41.0949C296.494 44.6044 292.66 48.0613 295.404 48.303C298.149 48.5447 298.715 42.3978 298.715 42.3978C298.715 42.3978 301.376 25.9642 280.162 30.6925Z" fill="#263238"/>
<path d="M293.171 80.4131H231.445V133.528H293.171V80.4131Z" fill="#263238"/>
<path d="M242.654 121.382C242.654 121.382 243.911 123.168 245.168 120.751C246.425 118.335 248.426 115.718 250.825 115.288C253.224 114.857 250.092 109.403 250.092 109.403L241.711 116.559L242.654 121.382Z" fill="#407BFF"/>
<path opacity="0.5" d="M242.654 121.382C242.654 121.382 243.911 123.168 245.168 120.751C246.425 118.335 248.426 115.718 250.825 115.288C253.224 114.857 250.092 109.403 250.092 109.403L241.711 116.559L242.654 121.382Z" fill="black"/>
<path d="M248.627 112.556C248.627 112.556 246.427 116.759 249.885 116.548C253.342 116.338 255.123 112.03 255.123 112.03L248.627 112.556Z" fill="#407BFF"/>
<path d="M258.056 110.034C258.056 110.034 255.332 114.762 250.094 113.816C244.856 112.871 244.227 121.382 242.656 121.382C241.084 121.382 236.684 107.827 240.979 98.2652C245.275 88.7035 257.218 89.0187 264.656 91.2252L269.265 91.9608C269.265 91.9608 287.494 90.8049 287.703 94.2724C287.913 97.7399 285.294 95.9536 281.627 100.472C277.96 104.99 266.437 108.983 266.437 108.983C266.437 108.983 262.948 114.972 258.056 110.034Z" fill="#407BFF"/>
<path opacity="0.3" d="M258.056 110.034C258.056 110.034 255.332 114.762 250.094 113.816C244.856 112.871 244.227 121.382 242.656 121.382C241.084 121.382 236.684 107.827 240.979 98.2652C245.275 88.7035 257.218 89.0187 264.656 91.2252L269.265 91.9608C269.265 91.9608 287.494 90.8049 287.703 94.2724C287.913 97.7399 285.294 95.9536 281.627 100.472C277.96 104.99 266.437 108.983 266.437 108.983C266.437 108.983 262.948 114.972 258.056 110.034Z" fill="black"/>
<path d="M257.22 112.976V108.563C257.22 108.563 255.418 92.6547 265.853 91.4148C265.853 91.4148 267.319 90.9525 267.089 91.6145C265.51 91.8651 264.019 92.5092 262.752 93.4876C261.486 94.4661 260.484 95.7477 259.839 97.215C257.304 102.469 259.001 111.715 259.001 111.715C259.001 111.715 257.587 114.405 257.22 112.976Z" fill="#407BFF"/>
<path d="M310.321 116.423L299.164 118.944L294.219 115.992C293.655 115.657 292.993 115.527 292.344 115.624L288.321 116.212C287.883 116.278 287.465 116.446 287.101 116.701C286.738 116.956 286.438 117.292 286.226 117.683L285.336 119.333C285.033 119.895 284.926 120.542 285.032 121.172L285.346 123.063C285.433 123.612 285.678 124.124 286.05 124.536C286.422 124.949 286.905 125.244 287.441 125.385L294.23 127.067C294.762 127.204 295.323 127.182 295.843 127.004L300.547 125.406L314.061 123.83L310.321 116.423Z" fill="#CE7A63"/>
<path d="M313.237 125.638C316.778 125.27 323.441 123.904 328.239 118.923C335.08 111.831 325.588 84.7847 321.88 78.0179C317.689 70.4525 311.299 69.3597 311.299 69.3597C303.022 66.5122 304.196 74.2352 306.553 83.6919C308.91 93.1486 317.867 106.808 318.077 109.467C318.223 111.127 313.132 113.092 309.455 114.279C307.8 114.836 311.917 125.774 313.237 125.638Z" fill="#407BFF"/>
<path opacity="0.8" d="M313.237 125.638C316.778 125.27 323.441 123.904 328.239 118.923C335.08 111.831 325.588 84.7847 321.88 78.0179C317.689 70.4525 311.299 69.3597 311.299 69.3597C303.022 66.5122 304.196 74.2352 306.553 83.6919C308.91 93.1486 317.867 106.808 318.077 109.467C318.223 111.127 313.132 113.092 309.455 114.279C307.8 114.836 311.917 125.774 313.237 125.638Z" fill="white"/>
<path d="M298.038 321.633H295.115L291.344 195.544H295.209L298.038 321.633Z" fill="#263238"/>
<path opacity="0.6" d="M298.038 321.633H295.115L291.344 195.544H295.209L298.038 321.633Z" fill="white"/>
<path d="M250.797 195.544V321.633H253.898L257.544 201.302H294.965L297.699 321.633H300.768V195.544H250.797Z" fill="#263238"/>
<path opacity="0.4" d="M250.797 195.544V321.633H253.898L257.544 201.302H294.965L297.699 321.633H300.768V195.544H250.797Z" fill="white"/>
<path d="M250.798 321.633H247.865L246.922 195.544H250.798V321.633Z" fill="#263238"/>
<path opacity="0.6" d="M250.798 321.633H247.865L246.922 195.544H250.798V321.633Z" fill="white"/>
<path d="M110.718 321.633H107.795L104.023 195.544H107.889L110.718 321.633Z" fill="#263238"/>
<path opacity="0.6" d="M110.718 321.633H107.795L104.023 195.544H107.889L110.718 321.633Z" fill="white"/>
<path d="M63.4844 195.544V321.633H66.5853L70.231 201.302H107.652L110.386 321.633H113.456V195.544H63.4844Z" fill="#263238"/>
<path opacity="0.4" d="M63.4844 195.544V321.633H66.5853L70.231 201.302H107.652L110.386 321.633H113.456V195.544H63.4844Z" fill="white"/>
<path d="M63.4856 321.633H60.5522L59.6094 195.544H63.4856V321.633Z" fill="#263238"/>
<path opacity="0.6" d="M63.4856 321.633H60.5522L59.6094 195.544H63.4856V321.633Z" fill="white"/>
<path d="M248.378 188.294H54.4844V195.544H248.378V188.294Z" fill="#407BFF"/>
<path opacity="0.6" d="M248.378 188.294H54.4844V195.544H248.378V188.294Z" fill="white"/>
<path d="M305.894 188.294H243.875V195.544H305.894V188.294Z" fill="#407BFF"/>
<path opacity="0.8" d="M305.894 188.294H243.875V195.544H305.894V188.294Z" fill="white"/>
<path d="M135.969 137.71L131.406 140.023L123.881 125.095C123.647 124.63 123.606 124.091 123.768 123.595C123.931 123.1 124.282 122.69 124.746 122.455L125.802 121.919C126.266 121.684 126.804 121.643 127.297 121.806C127.791 121.969 128.2 122.321 128.434 122.786L135.959 137.715L135.969 137.71Z" fill="#263238"/>
<path opacity="0.3" d="M135.969 137.71L131.406 140.023L123.881 125.095C123.647 124.63 123.606 124.091 123.768 123.595C123.931 123.1 124.282 122.69 124.746 122.455L125.802 121.919C126.266 121.684 126.804 121.643 127.297 121.806C127.791 121.969 128.2 122.321 128.434 122.786L135.959 137.715L135.969 137.71Z" fill="white"/>
<path d="M127.08 188.505H131.867V141.726H127.08V188.505Z" fill="#407BFF"/>
<path d="M139.923 146.989H144.711V141.715H139.923V146.989Z" fill="#407BFF"/>
<path opacity="0.2" d="M127.08 188.505H131.867V141.726H127.08V188.505Z" fill="black"/>
<path opacity="0.2" d="M139.923 146.989H144.711V141.715H139.923V146.989Z" fill="black"/>
<path d="M138.254 141.715H142.078V133.981H138.254V141.715Z" fill="#407BFF"/>
<path opacity="0.1" d="M138.254 141.715H142.078V133.981H138.254V141.715Z" fill="black"/>
<path d="M121.094 141.714H138.285V133.991L123.074 137.259C122.526 137.375 122.034 137.676 121.681 138.112C121.328 138.548 121.136 139.093 121.136 139.655L121.094 141.714Z" fill="#407BFF"/>
<path opacity="0.2" d="M121.094 141.714H138.285V133.991L123.074 137.259C122.526 137.375 122.034 137.676 121.681 138.112C121.328 138.548 121.136 139.093 121.136 139.655L121.094 141.714Z" fill="white"/>
<path d="M139.172 150.068L144.62 147.494C144.676 147.47 144.723 147.427 144.751 147.372C144.779 147.317 144.787 147.253 144.773 147.193C144.759 147.133 144.725 147.08 144.676 147.042C144.626 147.005 144.566 146.986 144.504 146.99H132.006C131.946 146.989 131.887 147.01 131.84 147.048C131.793 147.086 131.76 147.139 131.748 147.199C131.735 147.258 131.744 147.32 131.772 147.374C131.8 147.428 131.846 147.47 131.901 147.494L137.349 150.068C137.635 150.202 137.946 150.271 138.261 150.271C138.575 150.271 138.886 150.202 139.172 150.068Z" fill="#263238"/>
<path d="M135.805 151.318V154.081C135.805 155.323 136.808 156.33 138.047 156.33H138.455C139.693 156.33 140.697 155.323 140.697 154.081V151.318C140.697 150.076 139.693 149.069 138.455 149.069H138.047C136.808 149.069 135.805 150.076 135.805 151.318Z" fill="#263238"/>
<path opacity="0.6" d="M135.805 151.318V154.081C135.805 155.323 136.808 156.33 138.047 156.33H138.455C139.693 156.33 140.697 155.323 140.697 154.081V151.318C140.697 150.076 139.693 149.069 138.455 149.069H138.047C136.808 149.069 135.805 150.076 135.805 151.318Z" fill="white"/>
<path d="M140.588 151.309L141.642 153.862C142.116 155.009 143.427 155.554 144.571 155.079L144.949 154.922C146.093 154.447 146.636 153.132 146.162 151.984L145.108 149.431C144.634 148.284 143.322 147.739 142.178 148.214L141.801 148.371C140.657 148.846 140.114 150.162 140.588 151.309Z" fill="#263238"/>
<path d="M131.381 149.45L130.327 152.003C129.853 153.15 130.396 154.465 131.54 154.941L131.917 155.097C133.061 155.573 134.373 155.028 134.847 153.88L135.901 151.327C136.375 150.18 135.832 148.865 134.688 148.389L134.31 148.233C133.166 147.757 131.855 148.302 131.381 149.45Z" fill="#263238"/>
<g opacity="0.3">
<path d="M140.595 151.309L141.65 153.862C142.124 155.009 143.435 155.554 144.579 155.079L144.957 154.922C146.1 154.447 146.644 153.132 146.17 151.984L145.115 149.431C144.642 148.284 143.33 147.739 142.186 148.214L141.809 148.371C140.665 148.846 140.122 150.162 140.595 151.309Z" fill="white"/>
<path d="M131.381 149.449L130.326 152.003C129.853 153.15 130.396 154.465 131.54 154.941L131.917 155.098C133.061 155.573 134.373 155.028 134.846 153.881L135.9 151.328C136.374 150.18 135.831 148.865 134.687 148.389L134.31 148.233C133.166 147.757 131.854 148.302 131.381 149.449Z" fill="white"/>
</g>
<path d="M127.069 188.505H110.873C110.542 188.503 110.216 188.427 109.918 188.283C109.621 188.138 109.359 187.929 109.152 187.67C108.945 187.411 108.799 187.11 108.723 186.787C108.647 186.464 108.644 186.128 108.715 185.804L118.143 143.512C118.256 143 118.54 142.543 118.948 142.216C119.356 141.889 119.863 141.712 120.385 141.715H139.955V146.969H127.069V188.505Z" fill="#407BFF"/>
<path opacity="0.3" d="M127.069 188.505H110.873C110.542 188.503 110.216 188.427 109.918 188.283C109.621 188.138 109.359 187.929 109.152 187.67C108.945 187.411 108.799 187.11 108.723 186.787C108.647 186.464 108.644 186.128 108.715 185.804L118.143 143.512C118.256 143 118.54 142.543 118.948 142.216C119.356 141.889 119.863 141.712 120.385 141.715H139.955V146.969H127.069V188.505Z" fill="white"/>
<path d="M135.655 169.644H155.078V165.85H135.655V169.644Z" fill="#263238"/>
<path d="M116.226 169.644H135.648V165.85H116.226V169.644Z" fill="#263238"/>
<path opacity="0.7" d="M135.655 169.644H155.078V165.85H135.655V169.644Z" fill="white"/>
<path opacity="0.3" d="M116.226 169.644H135.648V165.85H116.226V169.644Z" fill="white"/>
<path d="M168.407 152.095H165.358C164.919 152.095 164.498 152.27 164.188 152.581C163.878 152.892 163.703 153.315 163.703 153.755C163.705 154.058 163.788 154.355 163.945 154.614C164.102 154.873 164.326 155.085 164.594 155.226V182.083C164.596 182.591 164.8 183.078 165.159 183.436C165.518 183.794 166.004 183.995 166.511 183.995H167.255C167.761 183.995 168.247 183.794 168.606 183.436C168.966 183.078 169.169 182.591 169.172 182.083V155.257C169.439 155.116 169.663 154.905 169.82 154.646C169.977 154.387 170.061 154.09 170.062 153.786C170.066 153.566 170.027 153.346 169.945 153.141C169.864 152.936 169.743 152.75 169.589 152.592C169.435 152.435 169.251 152.309 169.048 152.224C168.845 152.139 168.627 152.095 168.407 152.095Z" fill="#407BFF"/>
<path opacity="0.6" d="M168.407 152.095H165.358C164.919 152.095 164.498 152.27 164.188 152.581C163.878 152.892 163.703 153.315 163.703 153.755C163.705 154.058 163.788 154.355 163.945 154.614C164.102 154.873 164.326 155.085 164.594 155.226V182.083C164.596 182.591 164.8 183.078 165.159 183.436C165.518 183.794 166.004 183.995 166.511 183.995H167.255C167.761 183.995 168.247 183.794 168.606 183.436C168.966 183.078 169.169 182.591 169.172 182.083V155.257C169.439 155.116 169.663 154.905 169.82 154.646C169.977 154.387 170.061 154.09 170.062 153.786C170.066 153.566 170.027 153.346 169.945 153.141C169.864 152.936 169.743 152.75 169.589 152.592C169.435 152.435 169.251 152.309 169.048 152.224C168.845 152.139 168.627 152.095 168.407 152.095Z" fill="white"/>
<path d="M164.328 152.452C165.129 152.803 166.003 152.951 166.874 152.883C167.745 152.955 168.62 152.807 169.42 152.452C169.122 152.215 168.752 152.089 168.372 152.095H165.323C164.962 152.102 164.612 152.228 164.328 152.452Z" fill="#407BFF"/>
<path d="M166.873 173.94C166.087 173.94 165.458 173.74 165.438 173.488V182.115C165.438 182.394 165.548 182.661 165.744 182.858C165.941 183.055 166.207 183.166 166.485 183.166H167.229C167.507 183.166 167.773 183.055 167.97 182.858C168.166 182.661 168.277 182.394 168.277 182.115V173.488C168.298 173.74 167.669 173.94 166.873 173.94Z" fill="#407BFF"/>
<path d="M168.318 173.478C168.318 173.73 167.669 173.94 166.873 173.94C166.077 173.94 165.438 173.73 165.438 173.478C165.438 173.226 166.077 173.016 166.873 173.016C167.669 173.016 168.318 173.226 168.318 173.478Z" fill="#407BFF"/>
<path opacity="0.3" d="M168.318 173.478C168.318 173.73 167.669 173.94 166.873 173.94C166.077 173.94 165.438 173.73 165.438 173.478C165.438 173.226 166.077 173.016 166.873 173.016C167.669 173.016 168.318 173.226 168.318 173.478Z" fill="black"/>
<g opacity="0.8">
<path d="M165.414 155.447V182.115C165.43 182.216 165.481 182.308 165.559 182.375C165.637 182.442 165.736 182.478 165.838 182.478C165.941 182.478 166.039 182.442 166.117 182.375C166.195 182.308 166.246 182.216 166.262 182.115V155.447C166.246 155.345 166.195 155.253 166.117 155.186C166.039 155.12 165.941 155.083 165.838 155.083C165.736 155.083 165.637 155.12 165.559 155.186C165.481 155.253 165.43 155.345 165.414 155.447Z" fill="white"/>
</g>
<path d="M180.188 152.095H177.15C176.71 152.095 176.288 152.269 175.976 152.58C175.664 152.891 175.487 153.314 175.484 153.755C175.486 154.059 175.57 154.358 175.729 154.617C175.888 154.877 176.115 155.087 176.385 155.226V182.083C176.385 182.59 176.586 183.077 176.944 183.435C177.301 183.794 177.786 183.995 178.292 183.995H179.046C179.551 183.993 180.034 183.79 180.391 183.432C180.748 183.074 180.95 182.589 180.953 182.083V155.257C181.223 155.119 181.45 154.908 181.609 154.649C181.768 154.389 181.853 154.091 181.854 153.786C181.857 153.565 181.816 153.346 181.733 153.141C181.651 152.936 181.528 152.749 181.373 152.591C181.219 152.434 181.034 152.309 180.831 152.224C180.627 152.139 180.409 152.095 180.188 152.095Z" fill="#407BFF"/>
<path opacity="0.6" d="M180.188 152.095H177.15C176.71 152.095 176.288 152.269 175.976 152.58C175.664 152.891 175.487 153.314 175.484 153.755C175.486 154.059 175.57 154.358 175.729 154.617C175.888 154.877 176.115 155.087 176.385 155.226V182.083C176.385 182.59 176.586 183.077 176.944 183.435C177.301 183.794 177.786 183.995 178.292 183.995H179.046C179.551 183.993 180.034 183.79 180.391 183.432C180.748 183.074 180.95 182.589 180.953 182.083V155.257C181.223 155.119 181.45 154.908 181.609 154.649C181.768 154.389 181.853 154.091 181.854 153.786C181.857 153.565 181.816 153.346 181.733 153.141C181.651 152.936 181.528 152.749 181.373 152.591C181.219 152.434 181.034 152.309 180.831 152.224C180.627 152.139 180.409 152.095 180.188 152.095Z" fill="white"/>
<path d="M176.078 152.452C177.727 153.026 179.521 153.026 181.17 152.452C180.871 152.217 180.502 152.091 180.122 152.095H177.084C176.719 152.1 176.365 152.226 176.078 152.452Z" fill="#407BFF"/>
<path d="M178.631 167.867C177.845 167.867 177.206 167.667 177.195 167.415V182.125C177.195 182.404 177.306 182.671 177.502 182.868C177.699 183.066 177.965 183.176 178.243 183.176H178.997C179.275 183.176 179.542 183.066 179.738 182.868C179.934 182.671 180.045 182.404 180.045 182.125V167.415C180.055 167.667 179.416 167.867 178.631 167.867Z" fill="#407BFF"/>
<path d="M180.071 167.404C180.071 167.656 179.422 167.866 178.625 167.866C177.829 167.866 177.18 167.656 177.18 167.404C177.18 167.152 177.829 166.941 178.625 166.941C179.422 166.941 180.071 167.141 180.071 167.404Z" fill="#407BFF"/>
<path opacity="0.3" d="M180.071 167.404C180.071 167.656 179.422 167.866 178.625 167.866C177.829 167.866 177.18 167.656 177.18 167.404C177.18 167.152 177.829 166.941 178.625 166.941C179.422 166.941 180.071 167.141 180.071 167.404Z" fill="black"/>
<g opacity="0.8">
<path d="M177.172 155.447V182.115C177.188 182.216 177.239 182.308 177.317 182.375C177.395 182.442 177.494 182.478 177.596 182.478C177.698 182.478 177.797 182.442 177.875 182.375C177.953 182.308 178.004 182.216 178.02 182.115V155.447C178.004 155.345 177.953 155.253 177.875 155.186C177.797 155.12 177.698 155.083 177.596 155.083C177.494 155.083 177.395 155.12 177.317 155.186C177.239 155.253 177.188 155.345 177.172 155.447Z" fill="white"/>
</g>
<path d="M191.899 152.095H188.851C188.412 152.095 187.991 152.27 187.68 152.581C187.37 152.892 187.195 153.315 187.195 153.755C187.197 154.058 187.28 154.355 187.437 154.614C187.594 154.873 187.818 155.085 188.086 155.226V182.083C188.089 182.591 188.292 183.078 188.651 183.436C189.01 183.794 189.496 183.995 190.003 183.995H190.747C191.253 183.995 191.739 183.794 192.099 183.436C192.458 183.078 192.661 182.591 192.664 182.083V155.257C192.931 155.116 193.156 154.905 193.312 154.646C193.469 154.387 193.553 154.09 193.554 153.786C193.559 153.566 193.519 153.346 193.437 153.141C193.356 152.936 193.235 152.75 193.081 152.592C192.927 152.435 192.743 152.309 192.54 152.224C192.337 152.139 192.119 152.095 191.899 152.095Z" fill="#407BFF"/>
<path opacity="0.6" d="M191.899 152.095H188.851C188.412 152.095 187.991 152.27 187.68 152.581C187.37 152.892 187.195 153.315 187.195 153.755C187.197 154.058 187.28 154.355 187.437 154.614C187.594 154.873 187.818 155.085 188.086 155.226V182.083C188.089 182.591 188.292 183.078 188.651 183.436C189.01 183.794 189.496 183.995 190.003 183.995H190.747C191.253 183.995 191.739 183.794 192.099 183.436C192.458 183.078 192.661 182.591 192.664 182.083V155.257C192.931 155.116 193.156 154.905 193.312 154.646C193.469 154.387 193.553 154.09 193.554 153.786C193.559 153.566 193.519 153.346 193.437 153.141C193.356 152.936 193.235 152.75 193.081 152.592C192.927 152.435 192.743 152.309 192.54 152.224C192.337 152.139 192.119 152.095 191.899 152.095Z" fill="white"/>
<path d="M187.836 152.452C189.481 153.026 191.272 153.026 192.917 152.452C192.619 152.215 192.249 152.089 191.869 152.095H188.821C188.462 152.103 188.117 152.229 187.836 152.452Z" fill="#407BFF"/>
<path d="M190.373 162.655C189.587 162.655 188.958 162.445 188.938 162.192V182.157C188.938 182.435 189.048 182.703 189.244 182.9C189.441 183.097 189.707 183.207 189.985 183.207H190.729C191.007 183.207 191.273 183.097 191.47 182.9C191.666 182.703 191.777 182.435 191.777 182.157V162.192C191.797 162.445 191.169 162.655 190.373 162.655Z" fill="#407BFF"/>
<path d="M191.818 162.193C191.818 162.445 191.169 162.655 190.373 162.655C189.577 162.655 188.938 162.445 188.938 162.193C188.938 161.941 189.577 161.73 190.373 161.73C191.169 161.73 191.818 161.93 191.818 162.193Z" fill="#407BFF"/>
<path opacity="0.3" d="M191.818 162.193C191.818 162.445 191.169 162.655 190.373 162.655C189.577 162.655 188.938 162.445 188.938 162.193C188.938 161.941 189.577 161.73 190.373 161.73C191.169 161.73 191.818 161.93 191.818 162.193Z" fill="black"/>
<g opacity="0.8">
<path d="M188.922 155.447V182.115C188.938 182.216 188.989 182.308 189.067 182.375C189.145 182.442 189.244 182.478 189.346 182.478C189.448 182.478 189.547 182.442 189.625 182.375C189.703 182.308 189.754 182.216 189.77 182.115V155.447C189.754 155.345 189.703 155.253 189.625 155.186C189.547 155.12 189.448 155.083 189.346 155.083C189.244 155.083 189.145 155.12 189.067 155.186C188.989 155.253 188.938 155.345 188.922 155.447Z" fill="white"/>
</g>
<path d="M203.641 152.095H200.603C200.163 152.095 199.741 152.269 199.429 152.58C199.117 152.891 198.94 153.314 198.938 153.755C198.939 154.059 199.023 154.358 199.182 154.617C199.341 154.877 199.568 155.087 199.838 155.226V182.083C199.838 182.59 200.039 183.077 200.397 183.435C200.754 183.794 201.239 183.995 201.745 183.995H202.499C203.005 183.995 203.49 183.794 203.848 183.435C204.205 183.077 204.406 182.59 204.406 182.083V155.257C204.676 155.119 204.903 154.908 205.062 154.649C205.221 154.389 205.306 154.091 205.307 153.786C205.31 153.565 205.269 153.346 205.186 153.141C205.104 152.936 204.982 152.749 204.827 152.591C204.672 152.434 204.487 152.309 204.284 152.224C204.08 152.139 203.862 152.095 203.641 152.095Z" fill="#407BFF"/>
<path opacity="0.6" d="M203.641 152.095H200.603C200.163 152.095 199.741 152.269 199.429 152.58C199.117 152.891 198.94 153.314 198.938 153.755C198.939 154.059 199.023 154.358 199.182 154.617C199.341 154.877 199.568 155.087 199.838 155.226V182.083C199.838 182.59 200.039 183.077 200.397 183.435C200.754 183.794 201.239 183.995 201.745 183.995H202.499C203.005 183.995 203.49 183.794 203.848 183.435C204.205 183.077 204.406 182.59 204.406 182.083V155.257C204.676 155.119 204.903 154.908 205.062 154.649C205.221 154.389 205.306 154.091 205.307 153.786C205.31 153.565 205.269 153.346 205.186 153.141C205.104 152.936 204.982 152.749 204.827 152.591C204.672 152.434 204.487 152.309 204.284 152.224C204.08 152.139 203.862 152.095 203.641 152.095Z" fill="white"/>
<path d="M199.578 152.452C201.227 153.026 203.021 153.026 204.67 152.452C204.371 152.217 204.002 152.091 203.622 152.095H200.584C200.219 152.1 199.865 152.226 199.578 152.452Z" fill="#407BFF"/>
<path d="M202.123 167.867C201.337 167.867 200.698 167.667 200.688 167.415V182.125C200.688 182.404 200.798 182.671 200.994 182.868C201.191 183.066 201.457 183.176 201.735 183.176H202.489C202.767 183.176 203.034 183.066 203.23 182.868C203.427 182.671 203.537 182.404 203.537 182.125V167.415C203.548 167.667 202.908 167.867 202.123 167.867Z" fill="#407BFF"/>
<path d="M203.571 167.404C203.571 167.656 202.922 167.866 202.125 167.866C201.329 167.866 200.68 167.656 200.68 167.404C200.68 167.152 201.329 166.941 202.125 166.941C202.922 166.941 203.571 167.141 203.571 167.404Z" fill="#407BFF"/>
<path opacity="0.3" d="M203.571 167.404C203.571 167.656 202.922 167.866 202.125 167.866C201.329 167.866 200.68 167.656 200.68 167.404C200.68 167.152 201.329 166.941 202.125 166.941C202.922 166.941 203.571 167.141 203.571 167.404Z" fill="black"/>
<g opacity="0.8">
<path d="M200.664 155.447V182.115C200.68 182.216 200.731 182.308 200.809 182.375C200.887 182.442 200.986 182.478 201.088 182.478C201.191 182.478 201.289 182.442 201.367 182.375C201.445 182.308 201.496 182.216 201.512 182.115V155.447C201.496 155.345 201.445 155.253 201.367 155.186C201.289 155.12 201.191 155.083 201.088 155.083C200.986 155.083 200.887 155.12 200.809 155.186C200.731 155.253 200.68 155.345 200.664 155.447Z" fill="white"/>
</g>
<path d="M211.209 159.251C211.332 159.252 211.455 159.229 211.569 159.183C211.684 159.137 211.788 159.068 211.875 158.981C211.963 158.894 212.033 158.79 212.08 158.676C212.128 158.562 212.152 158.44 212.152 158.316V157.402C212.152 157.151 212.053 156.91 211.876 156.733C211.699 156.556 211.459 156.456 211.209 156.456H158.378C158.254 156.456 158.132 156.481 158.019 156.528C157.905 156.576 157.801 156.646 157.715 156.734C157.628 156.822 157.56 156.926 157.513 157.041C157.467 157.155 157.444 157.278 157.445 157.402V158.316C157.445 158.564 157.544 158.802 157.718 158.977C157.893 159.153 158.13 159.251 158.378 159.251H159.865V185.709H158.378C158.13 185.709 157.893 185.807 157.718 185.983C157.544 186.158 157.445 186.396 157.445 186.644V187.558C157.445 187.807 157.543 188.046 157.718 188.223C157.892 188.4 158.13 188.501 158.378 188.504H211.209C211.459 188.504 211.699 188.404 211.876 188.227C212.053 188.049 212.152 187.809 212.152 187.558V186.644C212.152 186.52 212.128 186.398 212.08 186.284C212.033 186.17 211.963 186.066 211.875 185.979C211.788 185.892 211.684 185.823 211.569 185.777C211.455 185.731 211.332 185.707 211.209 185.709H209.722V159.251H211.209ZM207.333 185.709H162.285V159.251H207.333V185.709Z" fill="#263238"/>
<path opacity="0.4" d="M211.209 159.251C211.332 159.252 211.455 159.229 211.569 159.183C211.684 159.137 211.788 159.068 211.875 158.981C211.963 158.894 212.033 158.79 212.08 158.676C212.128 158.562 212.152 158.44 212.152 158.316V157.402C212.152 157.151 212.053 156.91 211.876 156.733C211.699 156.556 211.459 156.456 211.209 156.456H158.378C158.254 156.456 158.132 156.481 158.019 156.528C157.905 156.576 157.801 156.646 157.715 156.734C157.628 156.822 157.56 156.926 157.513 157.041C157.467 157.155 157.444 157.278 157.445 157.402V158.316C157.445 158.564 157.544 158.802 157.718 158.977C157.893 159.153 158.13 159.251 158.378 159.251H159.865V185.709H158.378C158.13 185.709 157.893 185.807 157.718 185.983C157.544 186.158 157.445 186.396 157.445 186.644V187.558C157.445 187.807 157.543 188.046 157.718 188.223C157.892 188.4 158.13 188.501 158.378 188.504H211.209C211.459 188.504 211.699 188.404 211.876 188.227C212.053 188.049 212.152 187.809 212.152 187.558V186.644C212.152 186.52 212.128 186.398 212.08 186.284C212.033 186.17 211.963 186.066 211.875 185.979C211.788 185.892 211.684 185.823 211.569 185.777C211.455 185.731 211.332 185.707 211.209 185.709H209.722V159.251H211.209ZM207.333 185.709H162.285V159.251H207.333V185.709Z" fill="white"/>
<path d="M245.14 150.898V143.952H227.812V150.887C225.571 151.66 223.627 153.115 222.25 155.049C220.873 156.984 220.133 159.301 220.133 161.678V180.129C220.129 180.526 220.147 180.922 220.186 181.317C220.374 183.289 221.291 185.119 222.757 186.447C224.223 187.775 226.131 188.505 228.106 188.493H244.794C246.768 188.5 248.674 187.768 250.138 186.441C251.603 185.114 252.521 183.287 252.714 181.317C252.714 180.928 252.714 180.539 252.714 180.129V161.689C252.72 159.325 251.995 157.018 250.638 155.085C249.282 153.152 247.361 151.689 245.14 150.898Z" fill="#407BFF"/>
<path opacity="0.3" d="M245.14 150.898V143.952H227.812V150.887C225.571 151.66 223.627 153.115 222.25 155.049C220.873 156.984 220.133 159.301 220.133 161.678V180.129C220.129 180.526 220.147 180.922 220.186 181.317C220.374 183.289 221.291 185.119 222.757 186.447C224.223 187.775 226.131 188.505 228.106 188.493H244.794C246.768 188.5 248.674 187.768 250.138 186.441C251.603 185.114 252.521 183.287 252.714 181.317C252.714 180.928 252.714 180.539 252.714 180.129V161.689C252.72 159.325 251.995 157.018 250.638 155.085C249.282 153.152 247.361 151.689 245.14 150.898Z" fill="white"/>
<path opacity="0.6" d="M252.766 162.004H220.133V179.677H252.766V162.004Z" fill="white"/>
<path d="M245.445 138.184H227.457C226.838 138.184 226.336 138.687 226.336 139.308V145.35C226.336 145.971 226.838 146.474 227.457 146.474H245.445C246.064 146.474 246.565 145.971 246.565 145.35V139.308C246.565 138.687 246.064 138.184 245.445 138.184Z" fill="#407BFF"/>
<path opacity="0.3" d="M245.445 138.184H227.457C226.838 138.184 226.336 138.687 226.336 139.308V145.35C226.336 145.971 226.838 146.474 227.457 146.474H245.445C246.064 146.474 246.565 145.971 246.565 145.35V139.308C246.565 138.687 246.064 138.184 245.445 138.184Z" fill="black"/>
<g opacity="0.7">
<path d="M229.704 151.601H236.556C236.728 151.58 236.887 151.496 237.003 151.366C237.118 151.235 237.182 151.066 237.182 150.892C237.182 150.717 237.118 150.549 237.003 150.418C236.887 150.288 236.728 150.204 236.556 150.183H229.704C229.532 150.204 229.373 150.288 229.257 150.418C229.142 150.549 229.078 150.717 229.078 150.892C229.078 151.066 229.142 151.235 229.257 151.366C229.373 151.496 229.532 151.58 229.704 151.601Z" fill="white"/>
</g>
<g opacity="0.7">
<path d="M239.243 151.601H240.437C240.61 151.58 240.769 151.496 240.884 151.366C240.999 151.235 241.063 151.066 241.063 150.892C241.063 150.717 240.999 150.549 240.884 150.418C240.769 150.288 240.61 150.204 240.437 150.183H239.243C239.07 150.204 238.911 150.288 238.796 150.418C238.681 150.549 238.617 150.717 238.617 150.892C238.617 151.066 238.681 151.235 238.796 151.366C238.911 151.496 239.07 151.58 239.243 151.601Z" fill="white"/>
</g>
<path d="M242.859 168.256H239.025V164.421H233.871V168.256H230.047V173.426H233.871V177.261H239.025V173.426H242.859V168.256Z" fill="#407BFF"/>
<path opacity="0.3" d="M242.859 168.256H239.025V164.421H233.871V168.256H230.047V173.426H233.871V177.261H239.025V173.426H242.859V168.256Z" fill="black"/>
<path d="M81.3438 294.693L82.7999 314.016L92.5219 313.564L92.8361 293.568L81.3438 294.693Z" fill="#FFC3BD"/>
<path d="M91.7965 312.366L82.8603 312.629C82.6948 312.631 82.5353 312.691 82.4091 312.799C82.283 312.906 82.198 313.054 82.1688 313.217L80.765 320.573C80.7033 320.886 80.7678 321.211 80.9445 321.477C81.1212 321.743 81.3957 321.928 81.7079 321.991H81.9698C85.186 321.834 88.046 321.571 92.0688 321.455C96.8041 321.319 95.6203 321.918 101.194 321.834C104.546 321.781 105.049 317.935 103.614 317.788C97.0765 317.158 96.3431 315.214 93.766 312.944C93.202 312.516 92.5013 312.311 91.7965 312.366Z" fill="#263238"/>
<path d="M80.6621 309.056C79.4993 297.498 74.3764 244.614 77.9488 227.382C77.9488 227.382 70.804 188.788 70.385 171.472L69.0859 148.996L96.1355 149.5C96.1355 149.5 96.2507 216.254 96.0726 228.905C95.7793 250.288 93.7364 308.846 93.7364 308.846L80.6621 309.056Z" fill="#263238"/>
<path opacity="0.6" d="M71.1172 182.158L72.1648 175.212L75.3077 164.568L77.4762 168.057C77.4762 168.057 74.6686 205.453 76.6172 219.953C75.0143 210.77 72.4058 194.819 71.1172 182.158Z" fill="black"/>
<path d="M40.9365 294.041L39.2812 312.345L48.9927 313.049L52.4812 294.283L40.9365 294.041Z" fill="#FFC3BD"/>
<path d="M48.3363 311.935L39.4001 311.631C39.2352 311.623 39.0729 311.674 38.9411 311.774C38.8092 311.873 38.716 312.016 38.6773 312.177L36.8125 319.427C36.7324 319.735 36.7765 320.062 36.9354 320.338C37.0943 320.613 37.355 320.814 37.6611 320.898H37.9125C41.1392 320.951 44.0097 320.898 48.022 321.003C52.7678 321.171 51.5421 321.697 57.1049 321.97C60.4678 322.128 61.2011 318.313 59.7868 318.082C53.3021 317.031 52.6944 315.045 50.264 312.618C49.7258 312.163 49.0404 311.92 48.3363 311.935Z" fill="#263238"/>
<path d="M38.4453 307.669C39.0425 296.3 43.4529 242.722 49.7282 228.527C49.7282 228.527 49.2672 207.701 49.1729 189.408C49.0891 173.152 45.9463 155.563 50.2205 147.146L80.3082 149.206C80.3082 149.206 70.6701 216.023 68.5329 229.704C65.3901 249.973 51.2996 309.707 51.2996 309.707L38.4453 307.669Z" fill="#263238"/>
<path d="M123.477 100.966L131.156 93.2642C131.67 92.7445 131.96 92.0423 131.962 91.3098V88.4518C131.961 87.9177 132.116 87.395 132.406 86.9472C132.696 86.4995 133.11 86.146 133.597 85.93L135.692 84.9738C136.001 84.8394 136.282 84.6468 136.519 84.4064L138.478 82.4415C138.946 81.972 139.568 81.6878 140.228 81.6415C140.888 81.5951 141.543 81.7897 142.072 82.1893L143.119 82.9879C143.643 83.3731 144.014 83.9312 144.167 84.564L145.288 89.3554C145.417 89.8838 145.386 90.4387 145.199 90.9495C145.013 91.4603 144.679 91.9039 144.24 92.2239L139.505 95.6179L136.781 97.3936C136.555 97.5473 136.351 97.7311 136.174 97.94L128.191 107.554L123.477 100.966Z" fill="#407BFF"/>
<path d="M85.4062 67.374C85.4062 67.374 96.0082 68.3407 103.216 85.8356C110.423 103.331 114.289 104.276 116.761 102.858C118.461 101.825 120.104 100.703 121.685 99.4953C122.172 99.1309 122.781 98.971 123.384 99.0495C123.986 99.1279 124.534 99.4386 124.912 99.9156L129.417 105.569C129.749 105.984 129.93 106.501 129.93 107.034C129.93 107.567 129.749 108.084 129.417 108.5C126.745 111.873 119.632 119.544 111.806 117.432C101.204 114.574 93.452 99.4638 92.9491 94.8195C92.4462 90.1752 85.4062 67.374 85.4062 67.374Z" fill="#407BFF"/>
<path opacity="0.6" d="M85.4062 67.374C85.4062 67.374 96.0082 68.3407 103.216 85.8356C110.423 103.331 114.289 104.276 116.761 102.858C118.461 101.825 120.104 100.703 121.685 99.4953C122.172 99.1309 122.781 98.971 123.384 99.0495C123.986 99.1279 124.534 99.4386 124.912 99.9156L129.417 105.569C129.749 105.984 129.93 106.501 129.93 107.034C129.93 107.567 129.749 108.084 129.417 108.5C126.745 111.873 119.632 119.544 111.806 117.432C101.204 114.574 93.452 99.4638 92.9491 94.8195C92.4462 90.1752 85.4062 67.374 85.4062 67.374Z" fill="white"/>
<path opacity="0.1" d="M96.9154 84.8479C96.9154 84.8479 100.31 91.8879 102.332 111.348C96.842 105.684 93.2696 97.9192 92.903 94.8195C92.0892 90.6318 91.0577 86.4897 89.8125 82.4102H93.5106L96.9154 84.8479Z" fill="black"/>
<path d="M59.5618 67.9407C59.5618 67.9407 59.8971 67.8251 60.6094 67.6465V72.7741H85.1447V67.7936L86.1399 67.9407L89.2094 70.2313C89.2094 70.2313 95.7152 84.4164 97.2761 119.616V151.822H47.3047L59.5618 67.9407Z" fill="#407BFF"/>
<path opacity="0.8" d="M59.5618 67.9407C59.5618 67.9407 59.8971 67.8251 60.6094 67.6465V72.7741H85.1447V67.7936L86.1399 67.9407L89.2094 70.2313C89.2094 70.2313 95.7152 84.4164 97.2761 119.616V151.822H47.3047L59.5618 67.9407Z" fill="white"/>
<path d="M82.5754 66.9961C82.5754 66.9961 84.5135 71.6509 79.4326 72.2498C74.3516 72.8488 64.1478 66.9961 64.1478 66.9961L61.9688 67.5005C61.9688 67.5005 62.0211 75.9064 73.1783 79.1322C73.1783 79.1322 76.4049 74.9292 79.6211 74.8767C82.8373 74.8242 87.0906 78.2706 87.0906 78.2706C87.0906 78.2706 89.1859 72.7647 83.7173 67.0907L82.5754 66.9961Z" fill="#407BFF"/>
<g opacity="0.7">
<path d="M82.5754 66.9951C82.5754 66.9951 84.5135 71.6499 79.4326 72.2488C74.3516 72.8478 64.1478 66.9951 64.1478 66.9951L61.9688 67.4995C61.9688 67.4995 62.0211 75.9054 73.1783 79.1312C73.1783 79.1312 76.4049 74.9283 79.6211 74.8757C82.8373 74.8232 87.0906 78.2696 87.0906 78.2696C87.0906 78.2696 89.1859 72.7637 83.7173 67.0897L82.5754 66.9951Z" fill="white"/>
</g>
<path d="M82.5781 66.9961C82.5781 66.9961 89.6496 69.9907 92.2372 89.1458C94.8248 108.301 95.7781 144.226 95.0657 161.017C94.3534 177.808 93.421 188.673 98.6067 187.969C98.6067 187.969 99.0781 161.017 98.6067 130.987C98.1353 100.956 101.194 67.553 82.5781 66.9961Z" fill="#407BFF"/>
<path opacity="0.6" d="M82.5781 66.9961C82.5781 66.9961 89.6496 69.9907 92.2372 89.1458C94.8248 108.301 95.7781 144.226 95.0657 161.017C94.3534 177.808 93.421 188.673 98.6067 187.969C98.6067 187.969 99.0781 161.017 98.6067 130.987C98.1353 100.956 101.194 67.553 82.5781 66.9961Z" fill="white"/>
<path d="M61.3618 66.9961C61.3618 66.9961 69.8475 71.7245 70.7904 101.671C71.7333 131.617 71.419 188.357 61.3618 189.303C51.3047 190.249 40.3047 184.575 40.3047 184.575C40.3047 184.575 41.0171 173.72 42.8923 159.956C44.4637 148.471 47.0828 134.958 48.1304 124.052C49.3247 111.443 42.4733 76.768 46.8733 73.3006C51.2733 69.8331 61.3618 66.9961 61.3618 66.9961Z" fill="#407BFF"/>
<path opacity="0.6" d="M61.3618 66.9961C61.3618 66.9961 69.8475 71.7245 70.7904 101.671C71.7333 131.617 71.419 188.357 61.3618 189.303C51.3047 190.249 40.3047 184.575 40.3047 184.575C40.3047 184.575 41.0171 173.72 42.8923 159.956C44.4637 148.471 47.0828 134.958 48.1304 124.052C49.3247 111.443 42.4733 76.768 46.8733 73.3006C51.2733 69.8331 61.3618 66.9961 61.3618 66.9961Z" fill="white"/>
<path opacity="0.1" d="M45.8672 90.0493L50.2881 84.1546L56.8462 81.6328V87.3699C54.8025 96.2091 51.8316 104.807 47.9834 113.019C47.47 105.863 46.4643 97.373 45.8672 90.0493Z" fill="black"/>
<path opacity="0.1" d="M87.5078 69.2441L95.3126 82.41L93.605 85.7304L96.0773 88.7565L95.0507 112.262L94.9145 89.1453L92.3688 85.993L94.2021 82.41L87.5078 69.2441Z" fill="black"/>
<path opacity="0.1" d="M62.0116 69.8008L60.8906 83.8072L64.8401 86.4131L62.4516 91.5092L69.6068 111.347L64.8401 91.5407L67.0611 85.7931L62.4411 83.1032L62.0116 69.8008Z" fill="black"/>
<path d="M77.0887 112.293V110.191H82.3268V112.293C83.0053 112.53 83.5936 112.973 84.0103 113.561C84.4269 114.148 84.6513 114.85 84.6525 115.571V121.182C84.6525 121.298 84.6525 121.424 84.6525 121.539C84.5949 122.139 84.3155 122.694 83.8694 123.097C83.4234 123.5 82.843 123.72 82.243 123.715H77.1725C76.5742 123.717 75.9965 123.496 75.5527 123.093C75.1088 122.691 74.8309 122.137 74.7734 121.539C74.7734 121.424 74.7734 121.298 74.7734 121.182V115.582C74.7717 114.86 74.9936 114.156 75.4084 113.567C75.8232 112.978 76.4104 112.533 77.0887 112.293Z" fill="#407BFF"/>
<path opacity="0.3" d="M77.0887 112.293V110.191H82.3268V112.293C83.0053 112.53 83.5936 112.973 84.0103 113.561C84.4269 114.148 84.6513 114.85 84.6525 115.571V121.182C84.6525 121.298 84.6525 121.424 84.6525 121.539C84.5949 122.139 84.3155 122.694 83.8694 123.097C83.4234 123.5 82.843 123.72 82.243 123.715H77.1725C76.5742 123.717 75.9965 123.496 75.5527 123.093C75.1088 122.691 74.8309 122.137 74.7734 121.539C74.7734 121.424 74.7734 121.298 74.7734 121.182V115.582C74.7717 114.86 74.9936 114.156 75.4084 113.567C75.8232 112.978 76.4104 112.533 77.0887 112.293Z" fill="white"/>
<path opacity="0.6" d="M84.6605 115.666H74.75V121.035H84.6605V115.666Z" fill="white"/>
<path d="M82.4444 108.438H76.9863C76.7954 108.438 76.6406 108.593 76.6406 108.784V110.613C76.6406 110.804 76.7954 110.959 76.9863 110.959H82.4444C82.6354 110.959 82.7901 110.804 82.7901 110.613V108.784C82.7901 108.593 82.6354 108.438 82.4444 108.438Z" fill="#407BFF"/>
<path opacity="0.3" d="M82.4444 108.438H76.9863C76.7954 108.438 76.6406 108.593 76.6406 108.784V110.613C76.6406 110.804 76.7954 110.959 76.9863 110.959H82.4444C82.6354 110.959 82.7901 110.804 82.7901 110.613V108.784C82.7901 108.593 82.6354 108.438 82.4444 108.438Z" fill="black"/>
<g opacity="0.7">
<path d="M81.7513 112.514H79.6566C79.6078 112.503 79.5641 112.476 79.5327 112.436C79.5014 112.397 79.4844 112.349 79.4844 112.298C79.4844 112.248 79.5014 112.199 79.5327 112.16C79.5641 112.121 79.6078 112.094 79.6566 112.083H81.7513C81.8001 112.094 81.8438 112.121 81.8751 112.16C81.9064 112.199 81.9235 112.248 81.9235 112.298C81.9235 112.349 81.9064 112.397 81.8751 112.436C81.8438 112.476 81.8001 112.503 81.7513 112.514Z" fill="white"/>
</g>
<g opacity="0.7">
<path d="M78.8572 112.514H78.5006C78.4517 112.503 78.4079 112.476 78.3766 112.436C78.3452 112.397 78.3281 112.349 78.3281 112.298C78.3281 112.248 78.3452 112.199 78.3766 112.16C78.4079 112.121 78.4517 112.094 78.5006 112.083H78.8572C78.9061 112.094 78.9499 112.121 78.9812 112.16C79.0126 112.199 79.0297 112.248 79.0297 112.298C79.0297 112.349 79.0126 112.397 78.9812 112.436C78.9499 112.476 78.9061 112.503 78.8572 112.514Z" fill="white"/>
</g>
<path d="M77.7656 117.569H78.9285V116.402H80.4894V117.569H81.6523V119.145H80.4894V120.311H78.9285V119.145H77.7656V117.569Z" fill="#407BFF"/>
<path opacity="0.3" d="M77.7656 117.569H78.9285V116.402H80.4894V117.569H81.6523V119.145H80.4894V120.311H78.9285V119.145H77.7656V117.569Z" fill="black"/>
<path d="M54.0603 116.906L65.2174 119.428L70.1622 116.486C70.7258 116.149 71.3876 116.015 72.0375 116.108L76.0603 116.696C76.4991 116.766 76.916 116.937 77.2792 117.193C77.6424 117.45 77.9421 117.787 78.1556 118.178L79.046 119.817C79.3486 120.383 79.4554 121.033 79.3498 121.666L79.0355 123.558C78.9464 124.105 78.7011 124.614 78.3292 125.025C77.9574 125.435 77.4749 125.728 76.9403 125.869L70.1517 127.561C69.6178 127.689 69.0585 127.664 68.5384 127.487L63.8346 125.89L50.3203 124.314L54.0603 116.906Z" fill="#407BFF"/>
<path d="M54.0908 124.156C53.9079 124.778 53.5128 125.316 52.9746 125.675C52.4365 126.034 51.7896 126.192 51.147 126.121C47.6061 125.753 40.9432 124.387 36.1346 119.407C29.3042 112.314 38.7956 85.2681 42.5042 78.5013C46.6946 70.9359 53.0851 69.8431 53.0851 69.8431C61.3613 66.9956 60.1775 74.7186 57.8203 84.1753C55.4632 93.632 46.5061 107.292 46.2965 109.95C46.1499 111.621 51.2413 113.575 54.9184 114.773C55.3143 114.898 55.6769 115.112 55.9789 115.397C56.281 115.683 56.5148 116.034 56.6629 116.423C56.811 116.812 56.8695 117.229 56.8341 117.644C56.7987 118.059 56.6703 118.46 56.4584 118.818C55.4462 120.489 54.6506 122.283 54.0908 124.156Z" fill="#407BFF"/>
<path opacity="0.6" d="M54.0908 124.156C53.9079 124.778 53.5128 125.316 52.9746 125.675C52.4365 126.034 51.7896 126.192 51.147 126.121C47.6061 125.753 40.9432 124.387 36.1346 119.407C29.3042 112.314 38.7956 85.2681 42.5042 78.5013C46.6946 70.9359 53.0851 69.8431 53.0851 69.8431C61.3613 66.9956 60.1775 74.7186 57.8203 84.1753C55.4632 93.632 46.5061 107.292 46.2965 109.95C46.1499 111.621 51.2413 113.575 54.9184 114.773C55.3143 114.898 55.6769 115.112 55.9789 115.397C56.281 115.683 56.5148 116.034 56.6629 116.423C56.811 116.812 56.8695 117.229 56.8341 117.644C56.7987 118.059 56.6703 118.46 56.4584 118.818C55.4462 120.489 54.6506 122.283 54.0908 124.156Z" fill="white"/>
<path opacity="0.1" d="M64.8363 150.603C64.8363 150.603 66.502 155.51 57.7754 154.281C49.0487 153.052 51.3535 149.027 51.3535 149.027C51.3535 149.027 51.8668 152.064 58.0268 152.736C64.1868 153.409 64.8363 150.603 64.8363 150.603Z" fill="black"/>
<path d="M136.484 69.5277H137.218V60.6699L136.484 62.1515V69.5277Z" fill="#263238"/>
<path opacity="0.5" d="M136.484 69.5277H137.218V60.6699L136.484 62.1515V69.5277Z" fill="white"/>
<path d="M137.917 85.5305H135.822C135.511 85.5305 135.212 85.4065 134.992 85.1859C134.772 84.9651 134.649 84.6658 134.649 84.3537C134.646 84.1373 134.703 83.9244 134.814 83.7389C134.925 83.5533 135.085 83.4024 135.277 83.303V70.2737C135.277 70.0962 135.312 69.9204 135.38 69.7566C135.448 69.5927 135.548 69.444 135.674 69.3189C135.799 69.1939 135.948 69.0951 136.112 69.0281C136.276 68.9611 136.452 68.9274 136.629 68.9288H137.152C137.329 68.9274 137.505 68.9611 137.669 69.0281C137.833 69.0951 137.982 69.1939 138.107 69.3189C138.233 69.444 138.333 69.5927 138.401 69.7566C138.469 69.9204 138.504 70.0962 138.504 70.2737V83.2925C138.695 83.3919 138.856 83.5428 138.967 83.7284C139.078 83.9139 139.135 84.1268 139.132 84.3432C139.134 84.5022 139.103 84.6599 139.042 84.8067C138.981 84.9536 138.891 85.0865 138.778 85.1974C138.664 85.3084 138.529 85.3951 138.381 85.4524C138.234 85.5096 138.076 85.5362 137.917 85.5305Z" fill="#407BFF"/>
<path opacity="0.6" d="M137.917 85.5305H135.822C135.511 85.5305 135.212 85.4065 134.992 85.1859C134.772 84.9651 134.649 84.6658 134.649 84.3537C134.646 84.1373 134.703 83.9244 134.814 83.7389C134.925 83.5533 135.085 83.4024 135.277 83.303V70.2737C135.277 70.0962 135.312 69.9204 135.38 69.7566C135.448 69.5927 135.548 69.444 135.674 69.3189C135.799 69.1939 135.948 69.0951 136.112 69.0281C136.276 68.9611 136.452 68.9274 136.629 68.9288H137.152C137.329 68.9274 137.505 68.9611 137.669 69.0281C137.833 69.0951 137.982 69.1939 138.107 69.3189C138.233 69.444 138.333 69.5927 138.401 69.7566C138.469 69.9204 138.504 70.0962 138.504 70.2737V83.2925C138.695 83.3919 138.856 83.5428 138.967 83.7284C139.078 83.9139 139.135 84.1268 139.132 84.3432C139.134 84.5022 139.103 84.6599 139.042 84.8067C138.981 84.9536 138.891 85.0865 138.778 85.1974C138.664 85.3084 138.529 85.3951 138.381 85.4524C138.234 85.5096 138.076 85.5362 137.917 85.5305Z" fill="white"/>
<path d="M135.062 85.2684C136.222 84.8624 137.485 84.8624 138.645 85.2684C138.442 85.4363 138.186 85.5291 137.923 85.5311H135.827C135.549 85.539 135.277 85.4457 135.062 85.2684Z" fill="#407BFF"/>
<path d="M136.852 80.3301C136.297 80.3301 135.805 80.4667 135.805 80.6453V70.2744C135.805 70.1756 135.824 70.0777 135.862 69.9865C135.9 69.8953 135.956 69.8126 136.026 69.7432C136.096 69.6737 136.18 69.619 136.271 69.5821C136.362 69.5453 136.46 69.527 136.559 69.5284H137.082C137.181 69.527 137.279 69.5453 137.37 69.5821C137.462 69.619 137.545 69.6737 137.615 69.7432C137.685 69.8126 137.741 69.8953 137.779 69.9865C137.817 70.0777 137.837 70.1756 137.837 70.2744V80.6453C137.857 80.4667 137.407 80.3301 136.852 80.3301Z" fill="#407BFF"/>
<path d="M136.852 80.9806C137.413 80.9806 137.868 80.8347 137.868 80.6548C137.868 80.4749 137.413 80.3291 136.852 80.3291C136.291 80.3291 135.836 80.4749 135.836 80.6548C135.836 80.8347 136.291 80.9806 136.852 80.9806Z" fill="#407BFF"/>
<path opacity="0.3" d="M136.852 80.9806C137.413 80.9806 137.868 80.8347 137.868 80.6548C137.868 80.4749 137.413 80.3291 136.852 80.3291C136.291 80.3291 135.836 80.4749 135.836 80.6548C135.836 80.8347 136.291 80.9806 136.852 80.9806Z" fill="black"/>
<g opacity="0.8">
<path d="M135.828 83.1559V70.2738C135.841 70.204 135.878 70.1409 135.933 70.0956C135.987 70.0502 136.056 70.0254 136.127 70.0254C136.198 70.0254 136.267 70.0502 136.321 70.0956C136.376 70.1409 136.413 70.204 136.426 70.2738V83.1559C136.413 83.2257 136.376 83.2888 136.321 83.3341C136.267 83.3795 136.198 83.4043 136.127 83.4043C136.056 83.4043 135.987 83.3795 135.933 83.3341C135.878 83.2888 135.841 83.2257 135.828 83.1559Z" fill="white"/>
</g>
<path d="M136.486 89.5762H137.219V85.2471H136.486V89.5762Z" fill="#263238"/>
<path opacity="0.2" d="M136.486 89.5762H137.219V85.2471H136.486V89.5762Z" fill="white"/>
<path d="M134.677 89.8809H139.035C139.18 89.8809 139.297 89.7633 139.297 89.6182V89.5131C139.297 89.368 139.18 89.2504 139.035 89.2504H134.677C134.532 89.2504 134.415 89.368 134.415 89.5131V89.6182C134.415 89.7633 134.532 89.8809 134.677 89.8809Z" fill="#263238"/>
<path opacity="0.5" d="M134.677 89.8809H139.035C139.18 89.8809 139.297 89.7633 139.297 89.6182V89.5131C139.297 89.368 139.18 89.2504 139.035 89.2504H134.677C134.532 89.2504 134.415 89.368 134.415 89.5131V89.6182C134.415 89.7633 134.532 89.8809 134.677 89.8809Z" fill="white"/>
<path d="M56.8176 71.7557C57.97 69.0028 60.7567 66.8487 65.0833 65.3462C80.0329 60.1765 87.8795 67.4477 88.9795 68.5614C93.9348 69.2654 93.9348 85.6466 93.8614 89.3662C94.071 90.417 94.029 91.3837 92.6986 90.3434C91.0224 89.0405 92.07 88.2419 92.8243 87.9267C92.9395 80.5715 91.9548 69.6963 88.6967 69.5807C88.5148 69.5655 88.3321 69.5982 88.1667 69.6756C88.0014 69.753 87.859 69.8724 87.7538 70.022C85.7214 72.4912 87.4919 83.1248 88.5814 88.1579C89.3148 88.4521 90.729 89.2086 88.9062 90.6586C87.7014 91.5938 87.5443 90.9003 87.6805 89.9862C86.989 86.8339 84.2233 72.6699 86.9367 69.36C87.1376 69.1148 87.3874 68.9144 87.67 68.7716C85.5748 66.9223 78.2414 61.8892 65.4186 66.3444C61.3852 67.7419 58.8186 69.6962 57.7814 72.1655C56.21 75.8956 58.2319 80.2142 59.8767 83.7237C60.5933 85.0433 61.1189 86.4585 61.4376 87.9267L60.39 88.0423C60.0759 86.7018 59.5788 85.4112 58.9129 84.2071C57.2786 80.666 55.0576 75.9167 56.8176 71.7557Z" fill="#263238"/>
<path d="M79.0065 66.7957L82.6522 67.216C82.9665 68.1407 83.8675 71.7237 79.5094 72.2386C75.1513 72.7535 66.3932 68.1932 64.5703 67.195H64.9894C65.5401 67.0851 66.0567 66.8447 66.4959 66.4937C66.9351 66.1427 67.2842 65.6915 67.5141 65.1776C68.9703 60.6489 68.6665 54.1553 68.1741 50.0889L77.9589 59.7873C77.3381 61.5151 77.1265 63.3641 77.3408 65.1881C77.411 65.5993 77.6106 65.9771 77.9103 66.2664C78.21 66.5557 78.5941 66.7412 79.0065 66.7957Z" fill="#FFC3BD"/>
<path d="M92.4592 32.1843C92.4592 32.1843 93.0354 38.2681 83.1773 37.2174C73.3192 36.1666 82.2135 31.8271 82.2135 31.8271L91.4639 30.5557L92.4592 32.1843Z" fill="#263238"/>
<path opacity="0.6" d="M92.4592 32.1843C92.4592 32.1843 93.0354 38.2681 83.1773 37.2174C73.3192 36.1666 82.2135 31.8271 82.2135 31.8271L91.4639 30.5557L92.4592 32.1843Z" fill="black"/>
<path opacity="0.2" d="M72.1185 54.7549L77.7547 60.2923C77.4533 61.3183 77.2739 62.3764 77.2204 63.4446C75.891 63.0988 74.6654 62.4343 73.6489 61.5081C72.6324 60.5819 71.8555 59.4219 71.3851 58.1278C70.9032 56.5201 71.5109 54.8915 72.1185 54.7549Z" fill="black"/>
<path d="M66.6743 42.7132C67.0933 50.163 66.9676 54.5446 70.7076 58.3798C76.3124 64.1589 85.5105 60.765 87.3019 53.3573C88.9257 46.6325 87.9514 35.5996 80.6914 32.6155C79.0952 31.9452 77.3543 31.6961 75.6349 31.8921C73.9155 32.0882 72.2747 32.7227 70.8692 33.7352C69.4637 34.7477 68.3401 36.1045 67.6058 37.6762C66.8715 39.2478 66.5508 40.9819 66.6743 42.7132Z" fill="#FFC3BD"/>
<path d="M78.2812 44.909C78.2812 45.5184 78.5955 45.9597 78.9934 45.9597C79.3914 45.9597 79.7056 45.4764 79.7056 44.909C79.7056 44.3415 79.3914 43.8057 78.9934 43.8057C78.5955 43.8057 78.2812 44.31 78.2812 44.909Z" fill="#263238"/>
<path d="M85.1094 44.9403C85.1094 45.5393 85.4236 45.9911 85.8215 45.9911C86.2195 45.9911 86.5337 45.5078 86.5337 44.9403C86.5337 44.3729 86.2195 43.8266 85.832 43.8371C85.4445 43.8476 85.1094 44.3309 85.1094 44.9403Z" fill="#263238"/>
<path d="M75.7141 41.4834C75.6558 41.4684 75.6019 41.4396 75.557 41.3994C75.503 41.3208 75.4815 41.2243 75.4972 41.1302C75.5128 41.0361 75.5643 40.9518 75.6408 40.895C76.0868 40.5662 76.6032 40.3465 77.1489 40.2535C77.6946 40.1605 78.2544 40.1966 78.7836 40.3591C78.8639 40.3989 78.9263 40.4674 78.9584 40.5512C78.9906 40.635 78.9901 40.7278 78.9571 40.8113C78.9241 40.8947 78.8609 40.9626 78.7803 41.0015C78.6996 41.0404 78.6073 41.0474 78.5217 41.0211C78.0946 40.8905 77.6426 40.8643 77.2033 40.9447C76.7641 41.0251 76.3505 41.2099 75.997 41.4834C75.9525 41.5034 75.9043 41.5138 75.8555 41.5138C75.8068 41.5138 75.7586 41.5034 75.7141 41.4834Z" fill="#263238"/>
<path d="M88.2544 41.5154C88.2031 41.5439 88.1454 41.5589 88.0868 41.5589C88.0281 41.5589 87.9704 41.5439 87.9191 41.5154C87.5668 41.2474 87.1569 41.066 86.722 40.9857C86.2872 40.9054 85.8397 40.9285 85.4153 41.0531C85.3278 41.0876 85.2302 41.0859 85.1438 41.0485C85.0574 41.0111 84.9894 40.941 84.9544 40.8534C84.92 40.7656 84.9216 40.6677 84.9589 40.5811C84.9962 40.4945 85.0661 40.4262 85.1534 40.3911C85.692 40.2207 86.2632 40.1804 86.8203 40.2735C87.3775 40.3666 87.9047 40.5905 88.3591 40.927C88.3963 40.9532 88.4279 40.9865 88.4523 41.0249C88.4766 41.0634 88.4931 41.1063 88.5009 41.1512C88.5087 41.1961 88.5076 41.2421 88.4976 41.2866C88.4877 41.331 88.4691 41.3731 88.4429 41.4103C88.3909 41.4621 88.3257 41.4984 88.2544 41.5154Z" fill="#263238"/>
<path d="M82.2397 44.9199C82.9521 46.7752 83.9182 48.5221 85.1102 50.1106C84.6958 50.405 84.2226 50.6054 83.7233 50.698C83.224 50.7905 82.7106 50.7729 82.2188 50.6465L82.2397 44.9199Z" fill="#ED847E"/>
<path d="M80.5868 54.25C80.9092 54.3428 81.2385 54.4095 81.5716 54.4496C81.6229 54.4589 81.6758 54.4476 81.7189 54.4181C81.762 54.3886 81.7919 54.3433 81.8021 54.292C81.8049 54.2649 81.8023 54.2376 81.7942 54.2116C81.7862 54.1856 81.7729 54.1615 81.7553 54.1408C81.7376 54.1202 81.7159 54.1034 81.6915 54.0914C81.6671 54.0795 81.6406 54.0726 81.6135 54.0714C80.7716 53.983 79.9626 53.6961 79.2525 53.2341C78.5424 52.772 77.9514 52.148 77.5278 51.413C77.5041 51.3642 77.4622 51.3268 77.4111 51.3091C77.36 51.2914 77.304 51.2947 77.2554 51.3184C77.2068 51.3421 77.1695 51.3842 77.1518 51.4354C77.1342 51.4866 77.1375 51.5428 77.1611 51.5916C77.5263 52.2416 78.0176 52.8117 78.6059 53.2682C79.1943 53.7248 79.8678 54.0586 80.5868 54.25Z" fill="#263238"/>
<path d="M68.1412 50.0471C68.1412 50.0471 71.4622 49.3852 71.2107 42.6919C70.9593 35.9987 75.1288 39.2875 76.3755 35.5994C77.6222 31.9112 97.9355 39.7183 91.2098 27.1934C84.4841 14.6685 88.6955 29.7362 82.5774 28.2441C76.4593 26.7521 72.426 22.8223 70.1631 30.083C70.1841 30.0304 54.3336 30.3982 68.1412 50.0471Z" fill="#263238"/>
<path d="M65.6641 47.0839L65.9993 47.4202L67.0993 46.3694C67.589 45.8711 68.173 45.476 68.8171 45.2071C69.4611 44.9383 70.1522 44.8012 70.8498 44.8038H74.265C74.2789 45.7792 74.6785 46.7091 75.376 47.3889C76.0734 48.0687 77.0116 48.4428 77.9841 48.4289C78.9565 48.415 79.8836 48.0142 80.5614 47.3146C81.2393 46.6151 81.6122 45.6741 81.5983 44.6987C81.7049 44.6117 81.8381 44.5642 81.9755 44.5642C82.1129 44.5642 82.2461 44.6117 82.3526 44.6987C82.4218 45.654 82.8577 46.545 83.5686 47.1844C84.2795 47.8238 85.21 48.1617 86.1642 48.127C87.1185 48.0923 88.0221 47.6877 88.6849 46.9983C89.3478 46.3089 89.7182 45.3885 89.7182 44.4308C89.7182 43.4731 89.3478 42.5527 88.6849 41.8633C88.0221 41.1739 87.1185 40.7693 86.1642 40.7346C85.21 40.6999 84.2795 41.0378 83.5686 41.6772C82.8577 42.3166 82.4218 43.2077 82.3526 44.1629C82.2248 44.1094 82.0878 44.0819 81.9493 44.0819C81.8108 44.0819 81.6738 44.1094 81.546 44.1629C81.5237 43.1875 81.1161 42.2609 80.4128 41.587C79.7094 40.9131 78.768 40.547 77.7955 40.5693C76.823 40.5916 75.8992 41.0005 75.2273 41.7059C74.5554 42.4114 74.1904 43.3556 74.2126 44.331H70.7974C70.0381 44.3302 69.2861 44.4801 68.5848 44.7723C67.8836 45.0645 67.247 45.493 66.7117 46.0332L65.6641 47.0839ZM82.8136 44.5201C82.8136 43.8817 83.0025 43.2576 83.3563 42.7269C83.7102 42.1962 84.2131 41.7827 84.8014 41.5389C85.3897 41.2951 86.0369 41.2318 86.6611 41.3571C87.2853 41.4824 87.8583 41.7907 88.3077 42.2429C88.757 42.6951 89.0625 43.2708 89.1854 43.8973C89.3084 44.5237 89.2432 45.1726 88.9981 45.7619C88.7531 46.3511 88.3392 46.8542 87.809 47.2074C87.2787 47.5606 86.6558 47.748 86.0193 47.7459C85.1681 47.7431 84.3528 47.4021 83.7519 46.7974C83.151 46.1927 82.8136 45.3738 82.8136 44.5201ZM74.7155 44.5201C74.7155 43.8821 74.9041 43.2585 75.2575 42.728C75.6109 42.1975 76.1132 41.784 76.7009 41.5399C77.2886 41.2957 77.9353 41.2319 78.5591 41.3563C79.183 41.4808 79.7561 41.788 80.2059 42.2392C80.6557 42.6903 80.962 43.2651 81.0861 43.8908C81.2102 44.5165 81.1465 45.1652 80.9031 45.7546C80.6596 46.344 80.2474 46.8478 79.7185 47.2023C79.1896 47.5567 78.5678 47.7459 77.9317 47.7459C77.0787 47.7459 76.2606 47.4061 75.6575 46.8011C75.0543 46.1962 74.7155 45.3757 74.7155 44.5201Z" fill="#263238"/>
<path opacity="0.5" d="M65.6641 47.0839L65.9993 47.4202L67.0993 46.3694C67.589 45.8711 68.173 45.476 68.8171 45.2071C69.4611 44.9383 70.1522 44.8012 70.8498 44.8038H74.265C74.2789 45.7792 74.6785 46.7091 75.376 47.3889C76.0734 48.0687 77.0116 48.4428 77.9841 48.4289C78.9565 48.415 79.8836 48.0142 80.5614 47.3146C81.2393 46.6151 81.6122 45.6741 81.5983 44.6987C81.7049 44.6117 81.8381 44.5642 81.9755 44.5642C82.1129 44.5642 82.2461 44.6117 82.3526 44.6987C82.4218 45.654 82.8577 46.545 83.5686 47.1844C84.2795 47.8238 85.21 48.1617 86.1642 48.127C87.1185 48.0923 88.0221 47.6877 88.6849 46.9983C89.3478 46.3089 89.7182 45.3885 89.7182 44.4308C89.7182 43.4731 89.3478 42.5527 88.6849 41.8633C88.0221 41.1739 87.1185 40.7693 86.1642 40.7346C85.21 40.6999 84.2795 41.0378 83.5686 41.6772C82.8577 42.3166 82.4218 43.2077 82.3526 44.1629C82.2248 44.1094 82.0878 44.0819 81.9493 44.0819C81.8108 44.0819 81.6738 44.1094 81.546 44.1629C81.5237 43.1875 81.1161 42.2609 80.4128 41.587C79.7094 40.9131 78.768 40.547 77.7955 40.5693C76.823 40.5916 75.8992 41.0005 75.2273 41.7059C74.5554 42.4114 74.1904 43.3556 74.2126 44.331H70.7974C70.0381 44.3302 69.2861 44.4801 68.5848 44.7723C67.8836 45.0645 67.247 45.493 66.7117 46.0332L65.6641 47.0839ZM82.8136 44.5201C82.8136 43.8817 83.0025 43.2576 83.3563 42.7269C83.7102 42.1962 84.2131 41.7827 84.8014 41.5389C85.3897 41.2951 86.0369 41.2318 86.6611 41.3571C87.2853 41.4824 87.8583 41.7907 88.3077 42.2429C88.757 42.6951 89.0625 43.2708 89.1854 43.8973C89.3084 44.5237 89.2432 45.1726 88.9981 45.7619C88.7531 46.3511 88.3392 46.8542 87.809 47.2074C87.2787 47.5606 86.6558 47.748 86.0193 47.7459C85.1681 47.7431 84.3528 47.4021 83.7519 46.7974C83.151 46.1927 82.8136 45.3738 82.8136 44.5201ZM74.7155 44.5201C74.7155 43.8821 74.9041 43.2585 75.2575 42.728C75.6109 42.1975 76.1132 41.784 76.7009 41.5399C77.2886 41.2957 77.9353 41.2319 78.5591 41.3563C79.183 41.4808 79.7561 41.788 80.2059 42.2392C80.6557 42.6903 80.962 43.2651 81.0861 43.8908C81.2102 44.5165 81.1465 45.1652 80.9031 45.7546C80.6596 46.344 80.2474 46.8478 79.7185 47.2023C79.1896 47.5567 78.5678 47.7459 77.9317 47.7459C77.0787 47.7459 76.2606 47.4061 75.6575 46.8011C75.0543 46.1962 74.7155 45.3757 74.7155 44.5201Z" fill="white"/>
<path d="M63.0065 49.6477C64.0032 51.2376 65.5838 52.37 67.4065 52.8C69.8266 53.3358 70.9056 51.1398 70.1304 48.9122C69.4284 46.9263 67.3123 44.2259 64.9446 44.7092C62.577 45.1926 61.8018 47.6723 63.0065 49.6477Z" fill="#FFC3BD"/>
<path d="M71.228 30.9027C71.228 30.9027 65.4556 24.3355 64.1671 28.0236C63.2661 30.5559 66.4823 27.8345 71.228 30.9027Z" fill="#263238"/>
<path d="M59.5745 89.5136C59.6265 90.0847 59.8462 90.6275 60.2058 91.0734C60.5653 91.5192 61.0486 91.8482 61.5945 92.0187C62.1404 92.1891 62.7244 92.1934 63.2728 92.031C63.8211 91.8686 64.3092 91.5468 64.6752 91.1062C65.0412 90.6657 65.2688 90.1262 65.3292 89.556C65.3896 88.9857 65.28 88.4103 65.0144 87.9025C64.7488 87.3946 64.3391 86.9772 63.837 86.7029C63.3349 86.4286 62.763 86.3098 62.1935 86.3614C61.8151 86.3957 61.4472 86.5045 61.1107 86.6815C60.7743 86.8585 60.4759 87.1003 60.2327 87.3931C59.9894 87.6858 59.8061 88.0238 59.6932 88.3877C59.5803 88.7515 59.5399 89.1341 59.5745 89.5136Z" fill="white"/>
<path opacity="0.4" d="M59.5745 89.5136C59.6265 90.0847 59.8462 90.6275 60.2058 91.0734C60.5653 91.5192 61.0486 91.8482 61.5945 92.0187C62.1404 92.1891 62.7244 92.1934 63.2728 92.031C63.8211 91.8686 64.3092 91.5468 64.6752 91.1062C65.0412 90.6657 65.2688 90.1262 65.3292 89.556C65.3896 88.9857 65.28 88.4103 65.0144 87.9025C64.7488 87.3946 64.3391 86.9772 63.837 86.7029C63.3349 86.4286 62.763 86.3098 62.1935 86.3614C61.8151 86.3957 61.4472 86.5045 61.1107 86.6815C60.7743 86.8585 60.4759 87.1003 60.2327 87.3931C59.9894 87.6858 59.8061 88.0238 59.6932 88.3877C59.5803 88.7515 59.5399 89.1341 59.5745 89.5136Z" fill="#263238"/>
<path d="M60.8906 89.3136C60.8886 89.9899 61.0868 90.6516 61.4601 91.2148C61.8334 91.778 62.365 92.2173 62.9876 92.4771C63.6102 92.7368 64.2956 92.8054 64.9571 92.6739C65.6185 92.5425 66.2261 92.217 66.7029 91.7388C67.1797 91.2606 67.5042 90.6512 67.6352 89.9878C67.7663 89.3244 67.698 88.6369 67.439 88.0124C67.18 87.388 66.7419 86.8548 66.1804 86.4803C65.6189 86.1059 64.9592 85.9071 64.2849 85.9092C63.3847 85.9092 62.5214 86.2679 61.8848 86.9063C61.2483 87.5448 60.8906 88.4107 60.8906 89.3136Z" fill="#263238"/>
<path opacity="0.3" d="M60.8906 89.3136C60.8886 89.9899 61.0868 90.6516 61.4601 91.2148C61.8334 91.778 62.365 92.2173 62.9876 92.4771C63.6102 92.7368 64.2956 92.8054 64.9571 92.6739C65.6185 92.5425 66.2261 92.217 66.7029 91.7388C67.1797 91.2606 67.5042 90.6512 67.6352 89.9878C67.7663 89.3244 67.698 88.6369 67.439 88.0124C67.18 87.388 66.7419 86.8548 66.1804 86.4803C65.6189 86.1059 64.9592 85.9071 64.2849 85.9092C63.3847 85.9092 62.5214 86.2679 61.8848 86.9063C61.2483 87.5448 60.8906 88.4107 60.8906 89.3136Z" fill="white"/>
<path opacity="0.9" d="M61.6641 89.3132C61.6641 89.8352 61.8186 90.3456 62.108 90.7795C62.3974 91.2134 62.8087 91.5515 63.2897 91.7508C63.7708 91.9501 64.3001 92.0017 64.8105 91.8991C65.3208 91.7965 65.7893 91.5442 66.1566 91.1743C66.524 90.8044 66.7736 90.3335 66.8739 89.8212C66.9741 89.3089 66.9206 88.7783 66.7199 88.2966C66.5193 87.8149 66.1806 87.4037 65.7468 87.1152C65.313 86.8266 64.8036 86.6737 64.2831 86.6758C63.5875 86.6786 62.9214 86.9577 62.4305 87.452C61.9397 87.9463 61.6641 88.6155 61.6641 89.3132Z" fill="white"/>
</svg>
